<svg width="24" height="25" viewBox="0 0 24 25" fill="none" xmlns="http://www.w3.org/2000/svg">
<path d="M17.657 17.1572L13.414 21.4002C13.039 21.7748 12.5306 21.9853 12.0005 21.9853C11.4704 21.9853 10.962 21.7748 10.587 21.4002L6.343 17.1572C5.22422 16.0384 4.46234 14.6129 4.15369 13.0611C3.84504 11.5092 4.00349 9.90071 4.60901 8.43893C5.21452 6.97714 6.2399 5.72774 7.55548 4.8487C8.87107 3.96967 10.4178 3.50049 12 3.50049C13.5822 3.50049 15.1289 3.96967 16.4445 4.8487C17.7601 5.72774 18.7855 6.97714 19.391 8.43893C19.9965 9.90071 20.155 11.5092 19.8463 13.0611C19.5377 14.6129 18.7758 16.0384 17.657 17.1572Z" fill="#1D252A"/>
<path d="M12 14.5C13.6569 14.5 15 13.1569 15 11.5C15 9.84315 13.6569 8.5 12 8.5C10.3431 8.5 9 9.84315 9 11.5C9 13.1569 10.3431 14.5 12 14.5Z" fill="#F7F8FA"/>
</svg>
