<svg width="20" height="20" viewBox="0 0 20 20" fill="none" xmlns="http://www.w3.org/2000/svg">
<path d="M10 4.99999C10 5.92047 10.7462 6.66666 11.6667 6.66666C12.5871 6.66666 13.3333 5.92047 13.3333 5C13.3333 4.07952 12.5871 3.33333 11.6667 3.33333C10.7462 3.33333 10 4.07952 10 4.99999Z" stroke="#1D252A" stroke-linecap="round" stroke-linejoin="round"/>
<path d="M16.6667 5L13.3333 5" stroke="#1D252A" stroke-linecap="round" stroke-linejoin="round"/>
<path d="M10 5L3.33333 5" stroke="#1D252A" stroke-linecap="round" stroke-linejoin="round"/>
<path d="M5 9.99999C5 10.9205 5.74619 11.6667 6.66667 11.6667C7.58714 11.6667 8.33333 10.9205 8.33333 9.99999C8.33333 9.07952 7.58714 8.33333 6.66667 8.33333C5.74619 8.33333 5 9.07952 5 9.99999Z" stroke="#1D252A" stroke-linecap="round" stroke-linejoin="round"/>
<path d="M16.6667 10L8.33333 10" stroke="#1D252A" stroke-linecap="round" stroke-linejoin="round"/>
<path d="M5 10L3.33333 10" stroke="#1D252A" stroke-linecap="round" stroke-linejoin="round"/>
<path d="M12.5 15C12.5 15.9205 13.2462 16.6667 14.1667 16.6667C15.0871 16.6667 15.8333 15.9205 15.8333 15C15.8333 14.0795 15.0871 13.3333 14.1667 13.3333C13.2462 13.3333 12.5 14.0795 12.5 15Z" stroke="#1D252A" stroke-linecap="round" stroke-linejoin="round"/>
<path d="M16.6667 15L15.8333 15" stroke="#1D252A" stroke-linecap="round" stroke-linejoin="round"/>
<path d="M12.5 15L3.33333 15" stroke="#1D252A" stroke-linecap="round" stroke-linejoin="round"/>
</svg>
