<?xml version="1.0" encoding="UTF-8"?>
<!DOCTYPE svg PUBLIC "-//W3C//DTD SVG 1.1//EN" "http://www.w3.org/Graphics/SVG/1.1/DTD/svg11.dtd">
<!-- Creator: CorelDRAW 2020 (64-Bit) -->
<svg xmlns="http://www.w3.org/2000/svg" xml:space="preserve" width="4.498mm" height="4.498mm" version="1.1" style="shape-rendering:geometricPrecision; text-rendering:geometricPrecision; image-rendering:optimizeQuality; fill-rule:evenodd; clip-rule:evenodd"
viewBox="0 0 24.62 24.62"
 xmlns:xlink="http://www.w3.org/1999/xlink"
 xmlns:xodm="http://www.corel.com/coreldraw/odm/2003">
 <defs>
  <style type="text/css">
   <![CDATA[
    .str0 {stroke:#1D252A;stroke-width:1.45;stroke-linecap:round;stroke-linejoin:round;stroke-miterlimit:22.9256}
    .fil1 {fill:none}
    .fil0 {fill:#009846}
   ]]>
  </style>
 </defs>
 <g id="Слой_x0020_1">
  <metadata id="CorelCorpID_0Corel-Layer"/>
  <path class="fil0" d="M0.72 2.17l0 17.38c0,1.15 0.46,2.26 1.27,3.07 0.82,0.81 1.92,1.27 3.07,1.27l15.93 0c-0.77,0 -1.5,-0.31 -2.05,-0.85 -0.54,-0.54 -0.85,-1.28 -0.85,-2.05l0 -17.38 0 -1.45c0,-0.38 -0.15,-0.75 -0.42,-1.02 -0.27,-0.27 -0.64,-0.42 -1.02,-0.42l-14.48 0c-0.38,0 -0.75,0.15 -1.02,0.42 -0.27,0.27 -0.42,0.64 -0.42,1.02z"/>
  <g id="_2831296715952">
   <path class="fil1 str0" d="M18.11 3.62l4.35 0c0.38,0 0.75,0.15 1.02,0.42 0.27,0.27 0.42,0.64 0.42,1.02l0 15.93c0,0.77 -0.31,1.5 -0.85,2.05 -0.54,0.54 -1.28,0.85 -2.05,0.85 -0.77,0 -1.5,-0.31 -2.05,-0.85 -0.54,-0.54 -0.85,-1.28 -0.85,-2.05l0 -18.83c0,-0.38 -0.15,-0.75 -0.42,-1.02 -0.27,-0.27 -0.64,-0.42 -1.02,-0.42l-14.48 0c-0.38,0 -0.75,0.15 -1.02,0.42 -0.27,0.27 -0.42,0.64 -0.42,1.02l0 17.38c0,1.15 0.46,2.26 1.27,3.07 0.82,0.81 1.92,1.27 3.07,1.27l15.93 0"/>
   <line class="fil1 str0" x1="6.52" y1="6.52" x2="12.31" y2= "6.52" />
   <line class="fil1 str0" x1="6.52" y1="12.31" x2="12.31" y2= "12.31" />
   <line class="fil1 str0" x1="6.52" y1="18.11" x2="12.31" y2= "18.11" />
  </g>
 </g>
</svg>
