<?xml version="1.0" encoding="UTF-8"?>
<!DOCTYPE svg PUBLIC "-//W3C//DTD SVG 1.1//EN" "http://www.w3.org/Graphics/SVG/1.1/DTD/svg11.dtd">
<!-- Creator: CorelDRAW 2020 (64-Bit) -->
<svg xmlns="http://www.w3.org/2000/svg" xml:space="preserve" width="4.4978mm" height="5.1554mm" version="1.1" style="shape-rendering:geometricPrecision; text-rendering:geometricPrecision; image-rendering:optimizeQuality; fill-rule:evenodd; clip-rule:evenodd"
viewBox="0 0 29.2 33.47"
 xmlns:xlink="http://www.w3.org/1999/xlink"
 xmlns:xodm="http://www.corel.com/coreldraw/odm/2003">
 <defs>
  <style type="text/css">
   <![CDATA[
    .str0 {stroke:#1D252A;stroke-width:1.72;stroke-linecap:round;stroke-linejoin:round;stroke-miterlimit:22.9256}
    .fil1 {fill:none}
    .fil0 {fill:#009846}
   ]]>
  </style>
 </defs>
 <g id="Слой_x0020_1">
  <metadata id="CorelCorpID_0Corel-Layer"/>
  <path class="fil0" d="M1.9 9.34c-1.04,2.51 -1.31,5.27 -0.78,7.94 0.53,2.67 1.84,5.11 3.76,7.04l7.29 7.29c0.64,0.64 1.52,1 2.43,1 0.91,0 1.78,-0.36 2.43,-1l7.29 -7.29c1.92,-1.92 3.23,-4.37 3.76,-7.04 0.53,-2.67 0.26,-5.43 -0.78,-7.94 -1.04,-2.51 -2.8,-4.66 -5.06,-6.17 -2.26,-1.51 -4.92,-2.32 -7.63,-2.32 -2.72,0 -5.37,0.81 -7.63,2.32 -2.26,1.51 -4.02,3.66 -5.06,6.17zm12.69 10.41c-2.85,0 -5.15,-2.31 -5.15,-5.15 0,-2.85 2.31,-5.15 5.15,-5.15 2.85,0 5.15,2.31 5.15,5.15 0,2.85 -2.31,5.15 -5.15,5.15z"/>
  <g id="_2831296652928">
   <path class="fil1 str0" d="M14.6 19.75c2.85,0 5.15,-2.31 5.15,-5.15 0,-2.85 -2.31,-5.15 -5.15,-5.15 -2.85,0 -5.15,2.31 -5.15,5.15 0,2.85 2.31,5.15 5.15,5.15z"/>
   <path class="fil1 str0" d="M24.31 24.31l-7.29 7.29c-0.64,0.64 -1.52,1 -2.43,1 -0.91,0 -1.78,-0.36 -2.43,-1l-7.29 -7.29c-1.92,-1.92 -3.23,-4.37 -3.76,-7.04 -0.53,-2.67 -0.26,-5.43 0.78,-7.94 1.04,-2.51 2.8,-4.66 5.06,-6.17 2.26,-1.51 4.92,-2.32 7.63,-2.32 2.72,0 5.37,0.81 7.63,2.32 2.26,1.51 4.02,3.66 5.06,6.17 1.04,2.51 1.31,5.27 0.78,7.94 -0.53,2.67 -1.84,5.11 -3.76,7.04l0 0z"/>
  </g>
 </g>
</svg>
