<?xml version="1.0" encoding="UTF-8"?>
<!DOCTYPE svg PUBLIC "-//W3C//DTD SVG 1.1//EN" "http://www.w3.org/Graphics/SVG/1.1/DTD/svg11.dtd">
<!-- Creator: CorelDRAW 2020 (64-Bit) -->
<svg xmlns="http://www.w3.org/2000/svg" xml:space="preserve" width="4.498mm" height="5.0272mm" version="1.1" style="shape-rendering:geometricPrecision; text-rendering:geometricPrecision; image-rendering:optimizeQuality; fill-rule:evenodd; clip-rule:evenodd"
viewBox="0 0 20.69 23.13"
 xmlns:xlink="http://www.w3.org/1999/xlink"
 xmlns:xodm="http://www.corel.com/coreldraw/odm/2003">
 <defs>
  <style type="text/css">
   <![CDATA[
    .str0 {stroke:#1D252A;stroke-width:1.22;stroke-linecap:round;stroke-linejoin:round;stroke-miterlimit:22.9256}
    .fil1 {fill:none}
    .fil0 {fill:#009846}
   ]]>
  </style>
 </defs>
 <g id="Слой_x0020_1">
  <metadata id="CorelCorpID_0Corel-Layer"/>
  <path class="fil0" d="M3.04 17.65c-1.34,0 -2.43,1.09 -2.43,2.43 0,1.34 1.09,2.43 2.43,2.43 1.34,0 2.43,-1.09 2.43,-2.43 0,-1.34 -1.09,-2.43 -2.43,-2.43z"/>
  <path class="fil0" d="M15.21 3.04c0,1.34 1.09,2.43 2.43,2.43 1.34,0 2.43,-1.09 2.43,-2.43 0,-1.34 -1.09,-2.43 -2.43,-2.43 -1.34,0 -2.43,1.09 -2.43,2.43z"/>
  <g id="_2830711596000">
   <path class="fil1 str0" d="M3.04 22.52c1.34,0 2.43,-1.09 2.43,-2.43 0,-1.34 -1.09,-2.43 -2.43,-2.43 -1.34,0 -2.43,1.09 -2.43,2.43 0,1.34 1.09,2.43 2.43,2.43z"/>
   <path class="fil1 str0" d="M17.65 5.48c1.34,0 2.43,-1.09 2.43,-2.43 0,-1.34 -1.09,-2.43 -2.43,-2.43 -1.34,0 -2.43,1.09 -2.43,2.43 0,1.34 1.09,2.43 2.43,2.43z"/>
   <path class="fil1 str0" d="M10.35 20.08l5.48 0c1.13,0 2.21,-0.45 3.01,-1.25 0.8,-0.8 1.25,-1.88 1.25,-3.01 0,-1.13 -0.45,-2.21 -1.25,-3.01 -0.8,-0.8 -1.88,-1.25 -3.01,-1.25l-9.74 0c-1.13,0 -2.21,-0.45 -3.01,-1.25 -0.8,-0.8 -1.25,-1.88 -1.25,-3.01 0,-1.13 0.45,-2.21 1.25,-3.01 0.8,-0.8 1.88,-1.25 3.01,-1.25l4.26 0"/>
  </g>
 </g>
</svg>
