<svg width="25" height="24" viewBox="0 0 25 24" fill="none" xmlns="http://www.w3.org/2000/svg">
<g clip-path="url(#clip0)">
<circle cx="12.875" cy="12" r="12" fill="#D24A43"/>
<path fill-rule="evenodd" clip-rule="evenodd" d="M12.8742 4.75287e-06C10.5006 4.77894e-06 8.18023 0.703888 6.20666 2.02264C4.23308 3.34139 2.6949 5.21578 1.78663 7.40876C0.878368 9.60174 0.640821 12.0148 1.10402 14.3428C1.56722 16.6708 2.71037 18.8091 4.38891 20.4874C6.06744 22.1657 8.20596 23.3085 10.534 23.7714C12.8621 24.2343 15.2751 23.9963 17.468 23.0878C19.6608 22.1792 21.535 20.6407 22.8534 18.6669C24.1719 16.6932 24.8754 14.3727 24.8751 11.9991C24.8762 10.4229 24.5666 8.8619 23.9639 7.40546C23.3612 5.94902 22.4772 4.6257 21.3626 3.51123C20.248 2.39675 18.9245 1.51298 17.468 0.910492C16.0114 0.307999 14.4504 -0.00139864 12.8742 4.75287e-06ZM1.58655 11.9991C1.58622 9.47962 2.43322 7.03321 3.99136 5.05329C4.15359 5.0737 4.317 5.08321 4.4805 5.08175C5.33861 5.06142 6.17228 4.79197 6.87997 4.30624C7.53822 3.94321 8.17487 3.54233 8.78673 3.10561C9.23152 2.78312 9.70345 2.49984 10.1972 2.25896C10.3785 2.15076 10.5676 2.05622 10.7629 1.97614C11.3979 1.69332 11.6807 1.55281 12.8101 1.55281H15.2096C15.6526 1.51321 16.0909 1.43222 16.5187 1.31091C18.0279 1.83406 19.4103 2.66859 20.5763 3.76037C21.7422 4.85215 22.6656 6.1768 23.2867 7.64842C22.3529 7.52035 20.2433 7.11481 19.3736 6.07604C19.2935 5.88074 19.1989 5.69168 19.0907 5.51042C18.6674 4.73491 18.1018 3.53428 16.0545 3.32262C14.5728 3.11095 13.9378 3.46491 13.1606 3.88824C12.239 4.42099 11.2379 4.80234 10.1955 5.01772C9.48398 5.22938 8.92547 5.7292 8.36163 6.28771C7.65015 6.99919 6.94934 7.69999 5.89101 7.48833C5.46864 7.41579 5.0356 7.43496 4.62129 7.54452C4.20697 7.65408 3.82107 7.85148 3.48976 8.12332C3.10721 8.41971 2.79044 8.79239 2.55956 9.2177C2.32869 9.64301 2.18874 10.1117 2.14862 10.5939C2.10009 11.121 1.90474 11.6238 1.58477 12.0454V12.0045L1.58655 11.9991ZM5.89279 7.9757C7.09163 8.18737 7.86892 7.48122 8.64443 6.70571C9.21006 6.14008 9.71166 5.64738 10.3395 5.50508C11.3987 5.23855 12.4187 4.83556 13.374 4.30624C14.2224 3.81176 14.7151 3.59476 16.0563 3.74061C17.963 3.95228 18.4575 5.01238 18.8097 5.71675C18.952 5.99956 19.0214 6.21123 19.1654 6.35352C20.1651 7.52924 22.5877 7.92234 23.4486 8.02017C23.7921 8.92519 24.0164 9.87111 24.1156 10.8341C23.1213 10.2115 21.2181 9.05537 20.4354 8.89351C20.0797 8.82414 19.8004 8.82414 19.5176 8.75299C19.0231 8.68184 18.7403 8.68184 18.2476 8.47017C17.8919 8.32966 17.7532 7.90633 17.6109 7.40295C17.5237 7.08576 17.4045 6.77825 17.2551 6.48514C16.7606 5.63848 15.8428 5.35627 14.5017 5.63849C13.4345 5.85015 9.63161 7.19129 8.64265 9.01802C8.28691 9.7295 7.86714 9.7295 7.08985 9.7295C6.56837 9.70953 6.04648 9.75676 5.53705 9.87001C4.12654 10.1528 3.84372 11.3517 3.56091 12.4118C3.48976 12.6928 3.42039 12.9756 3.34924 13.1873C3.09844 13.9415 2.28202 14.194 1.81956 14.2776C1.69768 13.6916 1.62274 13.0969 1.59544 12.4989C2.11188 12.061 2.4576 11.4552 2.57195 10.7878C2.60218 10.3481 2.72472 9.91964 2.93159 9.53042C3.13845 9.14121 3.425 8.79995 3.77257 8.52887C4.06494 8.289 4.40523 8.11443 4.7706 8.01688C5.13598 7.91932 5.51799 7.90104 5.89101 7.96325L5.89279 7.9757ZM7.09163 10.023C7.86892 10.023 8.50391 10.0941 8.99839 9.17632C9.84505 7.55237 13.3046 6.21122 14.5746 5.93019C15.7041 5.64738 16.5508 5.85904 16.9047 6.56519C17.0304 6.83577 17.1247 7.11983 17.1858 7.41184C17.3281 7.90632 17.4686 8.47907 18.0342 8.68184C18.4613 8.86573 18.9132 8.9856 19.3753 9.03758C19.6845 9.05478 19.9913 9.10183 20.2914 9.17809C21.1273 9.34529 23.276 10.6953 24.1494 11.261C24.1654 11.5064 24.1743 11.7519 24.1743 12.0009C24.1744 12.5857 24.1292 13.1697 24.0391 13.7476C23.6086 13.5982 21.8958 12.8031 20.4319 12.072C20.1508 11.8604 19.868 11.9315 19.7204 12.1432L19.5087 11.9315C19.0143 11.3659 18.7973 11.1542 18.5909 11.1542C18.4644 11.1586 18.3423 11.2016 18.2412 11.2777C18.14 11.3537 18.0646 11.459 18.0253 11.5793C17.8964 11.602 17.7809 11.6729 17.7023 11.7777C17.6236 11.8824 17.5878 12.013 17.602 12.1432V12.7088C17.4918 12.6425 17.3717 12.5944 17.2462 12.5665C17.0346 12.4954 16.9634 12.426 16.8905 12.426C16.8176 12.426 16.6095 12.2837 16.6095 11.9315V10.9426C16.5777 10.6956 16.5062 10.4553 16.3978 10.2311C16.2555 10.0176 15.9727 9.51961 15.5493 9.51961C15.4175 9.52088 15.2908 9.57094 15.1936 9.66012V9.30438C15.1936 9.23324 15.2648 8.94864 15.2648 8.88105C15.3341 8.66761 15.0531 8.24428 14.909 8.03261C14.909 7.96324 14.8379 7.82095 14.6262 7.75158C14.4857 7.68043 14.3452 7.68043 14.0624 7.82094C13.5679 8.03261 12.9951 8.31542 12.7924 8.66761C12.6335 8.75145 12.4682 8.82224 12.2979 8.87927C12.0743 8.94412 11.8607 9.03928 11.6629 9.16209L9.96779 10.5032C9.04998 11.1382 8.90057 12.056 8.83832 12.5505C8.82224 12.6704 8.79908 12.7891 8.76894 12.9063C8.6323 13.139 8.46609 13.353 8.27446 13.543C8.13216 13.7547 7.91872 13.9664 7.85113 14.1069C7.78354 14.2474 7.70884 14.4626 7.63947 14.6014C7.60107 14.6392 7.57609 14.6885 7.56832 14.7419C7.35666 14.6725 7.28551 14.3185 7.14499 13.6747C7.07384 13.1802 7.00447 12.6074 6.50999 12.5452C6.43885 12.5452 6.15426 12.474 5.59219 13.0397C5.25254 13.3903 4.99921 13.8153 4.85225 14.2809C4.7053 14.7464 4.66876 15.2398 4.74553 15.7219C4.49829 15.9674 3.66586 16.533 2.80141 17.0951C2.39858 16.3082 2.08991 15.4765 1.88181 14.6174C2.41542 14.5178 3.35458 14.2065 3.75657 13.2513C3.82772 13.0397 3.89709 12.7568 3.96823 12.474C4.25105 11.4869 4.53386 10.4267 5.66333 10.1457C6.12434 10.0314 6.59929 9.98351 7.07384 10.0034L7.09163 10.023ZM10.3395 11.0902L12.0329 9.74906C12.1915 9.6649 12.3569 9.59409 12.5273 9.53739C12.8831 9.46625 13.2388 9.32573 13.374 9.04292C13.4451 8.83125 14.0855 8.54843 14.2918 8.47728C14.3476 8.62588 14.4185 8.76833 14.5035 8.9024C14.5035 9.04291 14.4323 9.25814 14.4323 9.32573C14.363 10.1724 14.644 10.5246 14.8557 10.6669C14.9337 10.7307 15.0283 10.7711 15.1284 10.7834C15.2285 10.7957 15.3301 10.7793 15.4213 10.7362L15.6329 10.5246C15.6381 10.5792 15.6635 10.6299 15.7041 10.6669C15.7618 10.8041 15.8088 10.9457 15.8446 11.0902V12.008C15.8323 12.2735 15.9089 12.5356 16.0623 12.7527C16.2156 12.9698 16.4369 13.1296 16.6913 13.2069C16.7678 13.2065 16.8422 13.2315 16.9029 13.278C17.5379 13.5608 17.7514 13.6337 17.9702 13.4897C18.1889 13.3456 18.2512 13.0663 18.2512 12.289C18.3244 12.291 18.3967 12.2721 18.4597 12.2346C18.5226 12.1972 18.5737 12.1427 18.6069 12.0774V12.008L19.0303 12.4313C19.5941 12.9952 19.8058 13.2069 20.0975 13.0663C20.1686 12.9952 20.238 12.8547 20.3092 12.7835C21.2625 13.2922 23.1906 14.2598 23.9253 14.4466C23.8267 14.8876 23.702 15.3224 23.5517 15.7486C22.0576 15.0371 19.7382 13.9077 19.5336 13.7725C19.2508 13.4897 18.9698 13.7725 18.8222 13.9841C18.751 14.0535 18.6816 14.1958 18.5393 14.2652C18.2583 14.4075 17.8279 14.6885 16.2822 14.1247C14.9393 13.6302 14.4466 12.4313 14.0926 11.0884C14.0496 10.9762 13.9714 10.8809 13.8698 10.8168C13.7682 10.7527 13.6485 10.7232 13.5287 10.7327C12.6109 10.7327 10.4231 12.145 9.64584 15.4622C9.43418 16.3089 8.57862 16.8034 7.95252 16.7322C7.24104 16.6629 6.82305 17.2267 6.46909 17.7212C6.41574 17.8492 6.34447 17.969 6.25742 18.0769C5.94793 18.4327 4.96074 19.1442 4.45026 19.4892C3.96979 18.9474 3.54159 18.3614 3.17137 17.739C5.48368 16.2306 5.48368 16.099 5.41076 16.0314V15.7415C5.3327 15.3644 5.34866 14.9739 5.45723 14.6045C5.5658 14.235 5.76365 13.898 6.0333 13.6231L6.31612 13.342C6.31612 13.4826 6.38548 13.6978 6.38548 13.8347C6.45663 14.4004 6.6683 15.4587 7.65726 15.4587C8.013 15.4587 8.15173 15.103 8.2211 14.8237C8.22237 14.6918 8.27244 14.5651 8.36163 14.468C8.45897 14.3098 8.5788 14.1666 8.71737 14.0428C8.97375 13.7971 9.18824 13.5111 9.35235 13.1962C9.44089 13.0462 9.4893 12.8759 9.49288 12.7017C9.56402 12.209 9.70631 11.5722 10.3413 11.0795L10.3395 11.0902ZM9.83973 15.6703C10.617 12.4936 12.5932 11.1525 13.4398 11.1525C13.511 11.1525 13.6515 11.1524 13.6515 11.2236C14.0748 12.5647 14.5693 13.977 16.0509 14.5409C17.5326 15.1047 18.1694 14.8966 18.5927 14.612C18.8044 14.5409 18.8755 14.4004 19.016 14.2563C19.2277 13.9753 19.2277 14.0446 19.2989 14.0446C19.5603 14.2421 22.6161 15.713 23.3899 16.0955C22.7213 17.7934 21.6543 19.3057 20.2789 20.5049C20.5119 19.8894 21.0046 19.0036 22.0469 17.9987C22.1531 17.9029 22.2245 17.7747 22.2499 17.634C22.2754 17.4933 22.2534 17.3482 22.1875 17.2214C21.8317 16.4459 20.2825 15.5281 19.434 15.5281C18.9518 15.5466 18.4756 15.6421 18.0235 15.8109C17.5984 15.9514 17.1057 16.1666 16.6112 16.0919C15.6934 15.9514 14.9873 15.8109 14.1406 14.0446C13.7173 13.198 13.3633 12.7746 13.0111 12.7746C12.659 12.7746 12.4455 13.0574 12.2997 13.2691C12.088 13.5519 11.5882 14.7508 11.453 15.4569C11.3107 16.2342 11.0973 16.7269 10.6063 17.5042C10.0391 18.3592 9.22696 19.0232 8.27624 19.4092C6.84261 19.9837 6.40682 20.6756 6.29477 21.1701C5.70337 20.7453 5.15419 20.2646 4.65481 19.7347C5.17775 19.3629 6.14358 18.6675 6.30011 18.3509C6.41514 18.2504 6.51098 18.1298 6.58293 17.9951C6.86396 17.57 7.21792 17.0773 7.7124 17.1467C8.55906 17.289 9.54624 16.7233 9.82905 15.665L9.83973 15.6703ZM6.80526 4.02342C6.04917 4.47668 5.17834 4.7021 4.29729 4.67265C5.68631 3.04119 7.51194 1.83988 9.55985 1.20976C11.6078 0.579631 13.7929 0.546843 15.8588 1.11525C15.6702 1.165 15.4772 1.19656 15.2825 1.20952H12.876C11.6753 1.20952 11.3214 1.35004 10.6864 1.70222C10.5063 1.81139 10.3177 1.90596 10.1225 1.98503C9.62798 2.22552 9.15541 2.50882 8.71024 2.8317C8.11618 3.29344 7.47812 3.69559 6.80526 4.03232V4.02342ZM11.9635 15.601C12.104 14.8895 12.5273 13.7654 12.739 13.4825C12.8102 13.4114 12.9507 13.1997 13.0947 13.1997C13.2388 13.1997 13.5181 13.342 13.9414 14.267C14.7169 15.9603 15.4942 16.3836 16.6948 16.4548C17.2587 16.5241 17.762 16.3125 18.2476 16.1719C18.6534 16.0113 19.082 15.9159 19.5176 15.8891C20.2291 15.8891 21.6361 16.6664 21.9171 17.3726C21.9494 17.4305 21.9601 17.498 21.9474 17.5631C21.9347 17.6282 21.8994 17.6867 21.8477 17.7283C20.3927 19.1335 19.9374 20.3056 19.7951 20.93C17.956 22.3653 15.7156 23.1925 13.385 23.2968C11.0544 23.401 8.74915 22.7771 6.78925 21.5116C6.78925 21.1772 6.97957 20.4177 8.56795 19.7792C9.57977 19.3626 10.4413 18.6487 11.0386 17.7319C11.6024 16.9564 11.75 16.3907 11.9564 15.6152L11.9635 15.601Z" fill="white"/>
<mask id="path-3-inside-1" fill="white">
<path fill-rule="evenodd" clip-rule="evenodd" d="M9.76855 20.2594C9.27585 20.6152 8.99304 20.9709 9.05707 21.2466C9.12111 21.5223 9.3381 21.8122 9.83258 21.9581C10.6996 22.2363 11.6043 22.3791 12.5149 22.3814C16.115 22.3814 18.9377 20.0531 19.5034 19.2758C19.9978 18.5643 20.2148 18.0058 20.069 17.6518C19.9267 17.3708 19.7133 17.2285 19.3575 17.088C19.0747 17.0168 18.646 17.088 18.0858 17.2285C17.4409 17.4023 16.7773 17.4972 16.1096 17.5113C15.1918 17.5113 14.5568 17.2997 13.9912 16.7998C13.5679 16.4441 13.2797 16.236 13.004 16.236C12.5807 16.236 12.5095 16.7287 12.4384 16.9475V17.0186C11.9581 18.8542 9.76855 20.2594 9.76855 20.2594ZM10.0514 21.5294C9.69563 21.4582 9.48751 21.3177 9.48751 21.1737C9.48751 21.1043 9.48752 20.8926 10.0514 20.5387C10.1225 20.4693 12.3815 19.057 12.8759 17.0809V17.0097C12.9453 16.7269 12.9453 16.5864 13.0876 16.5864C13.2299 16.5864 13.4433 16.6575 14.0036 17.0097C14.5693 17.573 15.346 17.8552 16.3337 17.8564C17.0248 17.842 17.7119 17.7471 18.381 17.5736C18.6829 17.5031 18.9897 17.4561 19.2988 17.4331H19.4393C19.5298 17.4616 19.6138 17.5078 19.6864 17.5688C19.759 17.6298 19.8189 17.7046 19.8627 17.7888C19.9338 18.0022 19.7222 18.4256 19.2988 19.0606C18.8043 19.6956 16.0509 21.9545 12.5931 21.9545C11.7281 21.9491 10.8696 21.8031 10.0514 21.5223V21.5294Z"/>
</mask>
<path fill-rule="evenodd" clip-rule="evenodd" d="M9.76855 20.2594C9.27585 20.6152 8.99304 20.9709 9.05707 21.2466C9.12111 21.5223 9.3381 21.8122 9.83258 21.9581C10.6996 22.2363 11.6043 22.3791 12.5149 22.3814C16.115 22.3814 18.9377 20.0531 19.5034 19.2758C19.9978 18.5643 20.2148 18.0058 20.069 17.6518C19.9267 17.3708 19.7133 17.2285 19.3575 17.088C19.0747 17.0168 18.646 17.088 18.0858 17.2285C17.4409 17.4023 16.7773 17.4972 16.1096 17.5113C15.1918 17.5113 14.5568 17.2997 13.9912 16.7998C13.5679 16.4441 13.2797 16.236 13.004 16.236C12.5807 16.236 12.5095 16.7287 12.4384 16.9475V17.0186C11.9581 18.8542 9.76855 20.2594 9.76855 20.2594ZM10.0514 21.5294C9.69563 21.4582 9.48751 21.3177 9.48751 21.1737C9.48751 21.1043 9.48752 20.8926 10.0514 20.5387C10.1225 20.4693 12.3815 19.057 12.8759 17.0809V17.0097C12.9453 16.7269 12.9453 16.5864 13.0876 16.5864C13.2299 16.5864 13.4433 16.6575 14.0036 17.0097C14.5693 17.573 15.346 17.8552 16.3337 17.8564C17.0248 17.842 17.7119 17.7471 18.381 17.5736C18.6829 17.5031 18.9897 17.4561 19.2988 17.4331H19.4393C19.5298 17.4616 19.6138 17.5078 19.6864 17.5688C19.759 17.6298 19.8189 17.7046 19.8627 17.7888C19.9338 18.0022 19.7222 18.4256 19.2988 19.0606C18.8043 19.6956 16.0509 21.9545 12.5931 21.9545C11.7281 21.9491 10.8696 21.8031 10.0514 21.5223V21.5294Z" fill="white"/>
<path d="M9.76855 20.2594L9.22845 19.4178L9.20539 19.4326L9.18317 19.4487L9.76855 20.2594ZM9.83258 21.9581L10.1382 21.0059L10.1269 21.0023L10.1155 20.9989L9.83258 21.9581ZM12.5149 22.3814L12.5124 23.3814H12.5149V22.3814ZM19.5034 19.2758L20.3119 19.8642L20.3183 19.8554L20.3245 19.8465L19.5034 19.2758ZM20.069 17.6518L20.9936 17.2708L20.9787 17.2348L20.9612 17.2001L20.069 17.6518ZM19.3575 17.088L19.7249 16.1579L19.6645 16.1341L19.6015 16.1182L19.3575 17.088ZM18.0858 17.2285L17.8425 16.2585L17.834 16.2607L17.8256 16.2629L18.0858 17.2285ZM16.1096 17.5113V18.5113H16.1202L16.1307 18.5111L16.1096 17.5113ZM13.9912 16.7998L14.6534 16.0505L14.644 16.0423L14.6345 16.0343L13.9912 16.7998ZM12.4384 16.9475L11.4874 16.6382L11.4384 16.789V16.9475H12.4384ZM12.4384 17.0186L13.4058 17.2717L13.4384 17.1473V17.0186H12.4384ZM10.0514 21.5294L9.85525 22.51L11.0514 22.7492V21.5294H10.0514ZM10.0514 20.5387L10.583 21.3856L10.6732 21.329L10.7495 21.2547L10.0514 20.5387ZM12.8759 17.0809L13.846 17.3236L13.8759 17.2041V17.0809H12.8759ZM12.8759 17.0097L11.9047 16.7715L11.8759 16.8889V17.0097H12.8759ZM14.0036 17.0097L14.7093 16.3011L14.6302 16.2224L14.5358 16.1631L14.0036 17.0097ZM16.3337 17.8564L16.3325 18.8564L16.3435 18.8564L16.3545 18.8562L16.3337 17.8564ZM18.381 17.5736L18.1536 16.5998L18.1418 16.6025L18.13 16.6056L18.381 17.5736ZM19.2988 17.4331V16.4331H19.2616L19.2245 16.4358L19.2988 17.4331ZM19.4393 17.4331L19.7406 16.4795L19.5935 16.4331H19.4393V17.4331ZM19.8627 17.7888L20.8114 17.4726L20.7864 17.3978L20.7501 17.3279L19.8627 17.7888ZM19.2988 19.0606L20.0878 19.675L20.1104 19.6459L20.1309 19.6153L19.2988 19.0606ZM12.5931 21.9545L12.5869 22.9545H12.5931V21.9545ZM10.0514 21.5223L10.376 20.5764L9.05137 20.1218V21.5223H10.0514ZM9.18317 19.4487C8.89329 19.658 8.60954 19.9054 8.40035 20.188C8.2082 20.4475 7.95274 20.912 8.083 21.4728L10.0311 21.0204C10.0643 21.1629 10.042 21.2765 10.0231 21.3347C10.0059 21.3878 9.9897 21.4024 10.0077 21.3781C10.0241 21.3559 10.0586 21.3155 10.1195 21.2591C10.1795 21.2036 10.2572 21.14 10.3539 21.0702L9.18317 19.4487ZM8.083 21.4728C8.23704 22.1361 8.74715 22.6805 9.54967 22.9172L10.1155 20.9989C10.0591 20.9823 10.0255 20.966 10.0084 20.9562C9.99175 20.9466 9.98898 20.9423 9.99367 20.9471C9.99843 20.9519 10.0065 20.9616 10.0144 20.9761C10.0221 20.9903 10.0277 21.0054 10.0311 21.0204L8.083 21.4728ZM9.52698 22.9102C10.4919 23.2199 11.4989 23.3789 12.5124 23.3814L12.5174 21.3814C11.7097 21.3794 10.9072 21.2527 10.1382 21.0059L9.52698 22.9102ZM12.5149 23.3814C14.5287 23.3814 16.3011 22.7317 17.6315 21.9949C18.9362 21.2723 19.9153 20.4092 20.3119 19.8642L18.6948 18.6874C18.5258 18.9196 17.8107 19.6094 16.6625 20.2453C15.5402 20.8669 14.1011 21.3814 12.5149 21.3814V23.3814ZM20.3245 19.8465C20.5957 19.4563 20.8279 19.057 20.9676 18.6673C21.1007 18.2961 21.2041 17.7818 20.9936 17.2708L19.1444 18.0328C19.0797 17.8759 19.1475 17.8178 19.085 17.9922C19.0291 18.1481 18.9055 18.3838 18.6822 18.7051L20.3245 19.8465ZM20.9612 17.2001C20.6587 16.6028 20.1796 16.3375 19.7249 16.1579L18.9901 18.0181C19.1325 18.0743 19.1772 18.105 19.1865 18.1121C19.188 18.1132 19.1834 18.1098 19.1775 18.1026C19.1718 18.0957 19.172 18.094 19.1768 18.1036L20.9612 17.2001ZM19.6015 16.1182C19.2846 16.0385 18.9639 16.0539 18.7022 16.0865C18.4293 16.1205 18.136 16.1849 17.8425 16.2585L18.329 18.1985C18.5958 18.1315 18.7969 18.0902 18.9492 18.0712C19.1126 18.0509 19.1477 18.0664 19.1135 18.0578L19.6015 16.1182ZM17.8256 16.2629C17.2587 16.4157 16.6755 16.4992 16.0886 16.5115L16.1307 18.5111C16.8792 18.4953 17.6231 18.3889 18.346 18.1941L17.8256 16.2629ZM16.1096 16.5113C15.3783 16.5113 14.9973 16.3544 14.6534 16.0505L13.329 17.5492C14.1163 18.2449 15.0054 18.5113 16.1096 18.5113V16.5113ZM14.6345 16.0343C14.4225 15.8561 14.1924 15.6697 13.9601 15.529C13.7248 15.3866 13.3998 15.236 13.004 15.236V17.236C12.8839 17.236 12.8408 17.1894 12.9244 17.24C13.0109 17.2924 13.1366 17.3879 13.3478 17.5654L14.6345 16.0343ZM13.004 15.236C12.2885 15.236 11.8852 15.7017 11.7051 16.0422C11.5733 16.2915 11.4695 16.6933 11.4874 16.6382L13.3894 17.2567C13.406 17.2056 13.4205 17.1534 13.4291 17.1223C13.4396 17.0845 13.4466 17.0592 13.4544 17.0337C13.4704 16.9807 13.4774 16.9692 13.4731 16.9772C13.4688 16.9853 13.4323 17.0536 13.3403 17.1214C13.2924 17.1567 13.2353 17.1874 13.1713 17.2083C13.1074 17.2291 13.0496 17.236 13.004 17.236V15.236ZM11.4384 16.9475V17.0186H13.4384V16.9475H11.4384ZM11.4709 16.7655C11.3014 17.4135 10.7956 18.066 10.2323 18.6046C9.96308 18.862 9.70564 19.0698 9.51618 19.2127C9.42194 19.2837 9.34584 19.3377 9.29519 19.3727C9.26991 19.3902 9.25107 19.4028 9.23961 19.4104C9.23389 19.4142 9.23002 19.4168 9.22811 19.418C9.22716 19.4186 9.22671 19.4189 9.22676 19.4189C9.22678 19.4189 9.22693 19.4188 9.22722 19.4186C9.22736 19.4185 9.22753 19.4184 9.22774 19.4183C9.22784 19.4182 9.22802 19.4181 9.22807 19.4181C9.22826 19.4179 9.22845 19.4178 9.76855 20.2594C10.3087 21.101 10.3089 21.1009 10.3091 21.1007C10.3092 21.1007 10.3094 21.1005 10.3096 21.1004C10.3099 21.1002 10.3103 21.1 10.3107 21.0997C10.3115 21.0992 10.3124 21.0986 10.3135 21.0979C10.3157 21.0965 10.3184 21.0947 10.3216 21.0926C10.328 21.0884 10.3365 21.0829 10.3469 21.0759C10.3678 21.0621 10.3964 21.0428 10.432 21.0182C10.5029 20.9692 10.6016 20.899 10.7202 20.8097C10.9563 20.6317 11.2762 20.3735 11.6144 20.0502C12.266 19.4272 13.0951 18.4594 13.4058 17.2717L11.4709 16.7655ZM10.2475 20.5488C10.1433 20.528 10.133 20.5096 10.1768 20.5377C10.2002 20.5527 10.2671 20.5993 10.3349 20.6927C10.407 20.7919 10.4875 20.9572 10.4875 21.1737H8.48751C8.48751 21.7571 8.89487 22.0912 9.09529 22.2201C9.33204 22.3722 9.60373 22.4597 9.85525 22.51L10.2475 20.5488ZM10.4875 21.1737C10.4875 21.1664 10.4878 21.1922 10.4851 21.2246C10.4822 21.259 10.4765 21.2976 10.4663 21.3382C10.4452 21.4222 10.4134 21.4825 10.3903 21.5172C10.3694 21.5486 10.3618 21.5498 10.3909 21.5238C10.4201 21.4978 10.4788 21.4511 10.583 21.3856L9.51969 19.6917C9.17362 19.909 8.90423 20.1405 8.72569 20.4086C8.51174 20.7298 8.48751 21.0139 8.48751 21.1737H10.4875ZM10.7495 21.2547C10.6835 21.3189 10.6119 21.3656 10.6691 21.3249C10.6887 21.311 10.7086 21.2971 10.7498 21.268C10.8239 21.2157 10.9291 21.1406 11.0552 21.0455C11.3064 20.8561 11.643 20.5858 11.9967 20.2469C12.6826 19.5898 13.5309 18.5829 13.846 17.3236L11.9058 16.8381C11.7265 17.555 11.1981 18.2423 10.6131 18.8027C10.3314 19.0726 10.059 19.2919 9.85118 19.4485C9.74778 19.5265 9.66095 19.5885 9.59599 19.6344C9.56761 19.6544 9.53125 19.6799 9.50969 19.6953C9.49796 19.7036 9.48172 19.7152 9.46553 19.7273C9.45743 19.7334 9.44489 19.7429 9.43056 19.7544C9.42067 19.7623 9.38926 19.7876 9.35327 19.8227L10.7495 21.2547ZM13.8759 17.0809V17.0097H11.8759V17.0809H13.8759ZM13.8471 17.2479C13.8673 17.166 13.8858 17.0797 13.8936 17.0449C13.9062 16.9892 13.9043 17.0069 13.8906 17.0434C13.8774 17.0786 13.8157 17.2381 13.6447 17.3807C13.4466 17.546 13.2289 17.5864 13.0876 17.5864V15.5864C12.8751 15.5864 12.6041 15.6444 12.3638 15.8448C12.1506 16.0226 12.0579 16.2349 12.0182 16.3406C11.978 16.4476 11.9543 16.5534 11.9429 16.6036C11.9268 16.6748 11.9193 16.7121 11.9047 16.7715L13.8471 17.2479ZM13.0876 17.5864C12.9734 17.5864 12.921 17.5528 12.9878 17.582C13.0618 17.6144 13.2065 17.6898 13.4715 17.8564L14.5358 16.1631C14.0063 15.8303 13.559 15.5864 13.0876 15.5864V17.5864ZM13.298 17.7183C14.0931 18.51 15.1471 18.855 16.3325 18.8564L16.3349 16.8564C15.5449 16.8554 15.0455 16.6359 14.7093 16.3011L13.298 17.7183ZM16.3545 18.8562C17.1234 18.8402 17.8877 18.7346 18.632 18.5416L18.13 16.6056C17.5361 16.7596 16.9263 16.8438 16.3129 16.8566L16.3545 18.8562ZM18.6084 18.5474C18.8599 18.4886 19.1156 18.4495 19.3732 18.4303L19.2245 16.4358C18.8638 16.4627 18.5058 16.5175 18.1536 16.5998L18.6084 18.5474ZM19.2988 18.4331H19.4393V16.4331H19.2988V18.4331ZM19.1381 18.3866C19.1033 18.3756 19.071 18.3579 19.0431 18.3344L20.3298 16.8032C20.1565 16.6576 19.9563 16.5477 19.7406 16.4795L19.1381 18.3866ZM19.0431 18.3344C19.0151 18.3109 18.9921 18.2821 18.9752 18.2497L20.7501 17.3279C20.6458 17.1271 20.503 16.9488 20.3298 16.8032L19.0431 18.3344ZM18.914 18.105C18.8552 17.9285 18.8819 17.7999 18.8848 17.7859C18.8891 17.7649 18.888 17.7823 18.8568 17.8506C18.7939 17.9881 18.6711 18.1994 18.4668 18.5059L20.1309 19.6153C20.3499 19.2867 20.5446 18.9688 20.6755 18.6826C20.7413 18.539 20.8062 18.3708 20.8434 18.1906C20.8792 18.0174 20.9058 17.7558 20.8114 17.4726L18.914 18.105ZM18.5098 18.4462C18.3745 18.6199 17.6876 19.2635 16.5788 19.8675C15.4949 20.458 14.1074 20.9545 12.5931 20.9545V22.9545C14.5366 22.9545 16.2547 22.3216 17.5356 21.6238C18.7916 20.9396 19.7286 20.1362 20.0878 19.675L18.5098 18.4462ZM12.5994 20.9545C11.8427 20.9498 11.0917 20.8221 10.376 20.5764L9.72676 22.4681C10.6475 22.7841 11.6134 22.9484 12.5869 22.9545L12.5994 20.9545ZM9.05137 21.5223V21.5294H11.0514V21.5223H9.05137Z" fill="white" mask="url(#path-3-inside-1)"/>
</g>
<defs>
<clipPath id="clip0">
<rect width="24" height="24" fill="white" transform="translate(0.875)"/>
</clipPath>
</defs>
</svg>
