<svg width="25" height="25" viewBox="0 0 25 25" fill="none" xmlns="http://www.w3.org/2000/svg">
<path d="M16.5 4.03076H8.5C6.29086 4.03076 4.5 5.82162 4.5 8.03076V16.0308C4.5 18.2399 6.29086 20.0308 8.5 20.0308H16.5C18.7091 20.0308 20.5 18.2399 20.5 16.0308V8.03076C20.5 5.82162 18.7091 4.03076 16.5 4.03076Z" stroke="#C1C1C1" stroke-linecap="round" stroke-linejoin="round"/>
<path d="M12.5 15.0308C14.1569 15.0308 15.5 13.6876 15.5 12.0308C15.5 10.3739 14.1569 9.03076 12.5 9.03076C10.8431 9.03076 9.5 10.3739 9.5 12.0308C9.5 13.6876 10.8431 15.0308 12.5 15.0308Z" stroke="#C1C1C1" stroke-linecap="round" stroke-linejoin="round"/>
<path d="M17 7.53076V7.53176" stroke="#C1C1C1" stroke-linecap="round" stroke-linejoin="round"/>
</svg>
