<svg width="150" height="40" viewBox="0 0 150 40" fill="none" xmlns="http://www.w3.org/2000/svg">
<path fill-rule="evenodd" clip-rule="evenodd" d="M20 7.92086e-06C16.0443 7.96431e-06 12.1773 1.17306 8.88828 3.37082C5.59924 5.56858 3.03579 8.69232 1.52213 12.347C0.00846165 16.0017 -0.387422 20.0232 0.384523 23.9029C1.15647 27.7826 3.06158 31.3462 5.85892 34.1432C8.65627 36.9401 12.2202 38.8447 16.1 39.6161C19.9798 40.3874 24.0012 39.9909 27.6557 38.4767C31.3102 36.9625 34.4335 34.3986 36.6308 31.1092C38.8281 27.8199 40.0006 23.9528 40 19.997C40.0019 17.3702 39.4859 14.7687 38.4815 12.3415C37.4771 9.91429 36.0039 7.70893 34.1463 5.85161C32.2887 3.99429 30.0831 2.52145 27.6558 1.51737C25.2284 0.513294 22.6269 -0.00233089 20 7.92086e-06ZM1.18868 19.997C1.18812 15.7982 2.59969 11.7211 5.19639 8.42153C5.46675 8.45554 5.73909 8.47139 6.01157 8.46896C7.44164 8.43507 8.83099 7.98602 10.0104 7.17653C11.1074 6.57153 12.1684 5.90344 13.1881 5.17564C13.9293 4.63818 14.7158 4.16608 15.5388 3.76465C15.8408 3.58433 16.1559 3.42677 16.4814 3.29332C17.5397 2.822 18.011 2.58783 19.8933 2.58783H23.8921C24.6303 2.52183 25.3608 2.38685 26.0738 2.18468C28.589 3.05654 30.8928 4.44732 32.8358 6.26682C34.7789 8.08631 36.3179 10.2939 37.3529 12.7464C35.7966 12.533 32.281 11.8571 30.8315 10.126C30.698 9.80051 30.5404 9.48543 30.3601 9.18335C29.6547 7.89092 28.712 5.89003 25.3001 5.53728C22.8309 5.18453 21.7726 5.77442 20.4773 6.47992C18.9415 7.36778 17.2731 8.0033 15.5358 8.36224C14.3501 8.71499 13.4193 9.54796 12.4796 10.4787C11.2939 11.6645 10.126 12.8324 8.36224 12.4796C7.65834 12.3587 6.93667 12.3907 6.24619 12.5733C5.55572 12.7559 4.9126 13.0848 4.36046 13.5379C3.72292 14.0318 3.195 14.6529 2.81024 15.3617C2.42548 16.0705 2.19226 16.8515 2.12539 17.6553C2.04451 18.5335 1.71896 19.3716 1.18571 20.0741V20.0059L1.18868 19.997ZM8.36521 13.2918C10.3631 13.6446 11.6585 12.4678 12.9509 11.1753C13.8936 10.2327 14.7295 9.4116 15.7759 9.17446C17.541 8.73027 19.2409 8.05867 20.833 7.17653C22.2469 6.35246 23.068 5.99082 25.3031 6.23389C28.4808 6.58664 29.3049 8.35335 29.8918 9.52721C30.1289 9.99853 30.2446 10.3513 30.4847 10.5884C32.1506 12.5478 36.1879 13.2029 37.6226 13.366C38.1952 14.8742 38.5689 16.4506 38.7342 18.0554C37.0772 17.0179 33.9054 15.0912 32.6011 14.8214C32.0083 14.7058 31.5429 14.7058 31.0716 14.5872C30.2475 14.4687 29.7762 14.4687 28.9551 14.1159C28.3622 13.8817 28.131 13.1762 27.8939 12.3373C27.7485 11.8087 27.5499 11.2962 27.301 10.8078C26.477 9.39677 24.9474 8.92645 22.7123 9.39678C20.9337 9.74953 14.5961 11.9846 12.948 15.0289C12.3551 16.2146 11.6556 16.2146 10.3602 16.2146C9.49108 16.1814 8.62134 16.2601 7.77235 16.4488C5.42168 16.9201 4.95035 18.9181 4.47902 20.6848C4.36045 21.1531 4.24485 21.6244 4.12627 21.9772C3.70831 23.234 2.34771 23.655 1.577 23.7943C1.37388 22.8177 1.24899 21.8265 1.2035 20.83C2.06416 20.1002 2.64032 19.0906 2.83089 17.9784C2.88126 17.2455 3.08548 16.5315 3.43024 15.8829C3.77499 15.2342 4.25254 14.6655 4.83177 14.2137C5.31901 13.814 5.88613 13.5231 6.49504 13.3605C7.10395 13.1979 7.74059 13.1674 8.36224 13.2711L8.36521 13.2918ZM10.3631 16.7037C11.6585 16.7037 12.7168 16.8223 13.5408 15.2927C14.9518 12.5863 20.7174 10.3513 22.8339 9.88292C24.7162 9.4116 26.1272 9.76435 26.7171 10.9412C26.9265 11.3921 27.0836 11.8655 27.1854 12.3522C27.4226 13.1762 27.6567 14.1307 28.5994 14.4687C29.3112 14.7751 30.0643 14.9749 30.8344 15.0615C31.3497 15.0902 31.8609 15.1686 32.361 15.2957C33.7542 15.5743 37.3351 17.8242 38.7906 18.7669C38.8172 19.1759 38.8321 19.585 38.8321 20C38.8324 20.9747 38.757 21.9479 38.6068 22.9109C37.8894 22.6619 35.0348 21.3369 32.5952 20.1186C32.1269 19.7658 31.6556 19.8844 31.4095 20.2372L31.0568 19.8844C30.2327 18.9418 29.871 18.589 29.5272 18.589C29.3164 18.5962 29.1129 18.668 28.9443 18.7947C28.7757 18.9215 28.6501 19.097 28.5845 19.2975C28.3697 19.3353 28.1772 19.4535 28.0462 19.628C27.9152 19.8025 27.8554 20.0202 27.879 20.2372V21.1798C27.6955 21.0692 27.4953 20.9892 27.2862 20.9427C26.9334 20.8241 26.8149 20.7085 26.6933 20.7085C26.5718 20.7085 26.225 20.4713 26.225 19.8844V18.2363C26.172 17.8246 26.0529 17.4242 25.8722 17.0506C25.6351 16.6948 25.1638 15.8648 24.4583 15.8648C24.2385 15.867 24.0273 15.9504 23.8654 16.099V15.5062C23.8654 15.3876 23.984 14.9133 23.984 14.8007C24.0996 14.4449 23.6313 13.7394 23.3911 13.3867C23.3911 13.2711 23.2726 13.034 22.9198 12.9183C22.6856 12.7998 22.4515 12.7998 21.9801 13.0339C21.1561 13.3867 20.2016 13.858 19.8636 14.4449C19.599 14.5847 19.3234 14.7026 19.0396 14.7977C18.667 14.9058 18.3109 15.0644 17.9813 15.269L15.1564 17.5041C13.6268 18.5623 13.3778 20.0919 13.2741 20.916C13.2473 21.1157 13.2087 21.3137 13.1584 21.5088C12.9307 21.8967 12.6537 22.2534 12.3344 22.57C12.0972 22.9228 11.7415 23.2755 11.6289 23.5097C11.5162 23.7439 11.3917 24.1026 11.2761 24.3338C11.2121 24.3968 11.1705 24.4791 11.1576 24.568C10.8048 24.4524 10.6862 23.8625 10.4521 22.7894C10.3335 21.9653 10.2179 21.0108 9.39381 20.9071C9.27523 20.9071 8.80096 20.7885 7.86424 21.7311C7.29821 22.3156 6.87602 23.0238 6.63111 23.7997C6.38621 24.5755 6.32531 25.3978 6.45324 26.2013C6.04121 26.6104 4.65393 27.553 3.21329 28.4897C2.54196 27.1783 2.02755 25.7923 1.68074 24.3605C2.57003 24.1945 4.13518 23.6757 4.80511 22.0839C4.92368 21.7311 5.03928 21.2598 5.15786 20.7885C5.62918 19.1433 6.10049 17.3766 7.98281 16.9083C8.75109 16.7178 9.54263 16.638 10.3335 16.6711L10.3631 16.7037ZM15.7759 18.4823L18.5979 16.2472C18.8623 16.107 19.138 15.989 19.422 15.8945C20.0148 15.7759 20.6077 15.5417 20.833 15.0704C20.9515 14.7177 22.0187 14.2463 22.3625 14.1278C22.4555 14.3754 22.5737 14.6128 22.7153 14.8362C22.7153 15.0704 22.5967 15.4291 22.5967 15.5417C22.4811 16.9527 22.9495 17.5396 23.3022 17.7768C23.4323 17.8832 23.59 17.9505 23.7568 17.971C23.9236 17.9914 24.0929 17.9642 24.2449 17.8924L24.5976 17.5396C24.6062 17.6307 24.6485 17.7152 24.7162 17.7768C24.8124 18.0055 24.8907 18.2414 24.9503 18.4823V20.0119C24.9299 20.4544 25.0576 20.8911 25.3131 21.2529C25.5686 21.6147 25.9375 21.8811 26.3613 22.0098C26.4888 22.0091 26.6129 22.0508 26.7141 22.1284C27.7723 22.5997 28.128 22.7212 28.4927 22.4811C28.8573 22.241 28.961 21.7756 28.961 20.4802C29.0831 20.4834 29.2035 20.452 29.3084 20.3896C29.4134 20.3271 29.4985 20.2363 29.5539 20.1275V20.0119L30.2594 20.7174C31.1991 21.657 31.5518 22.0098 32.0379 21.7756C32.1565 21.657 32.2721 21.4229 32.3907 21.3043C33.9795 22.1521 37.1928 23.7646 38.4171 24.0759C38.2528 24.8109 38.045 25.5354 37.7946 26.2457C35.3046 25.06 31.4392 23.1777 31.0983 22.9524C30.6269 22.4811 30.1586 22.9524 29.9126 23.3052C29.794 23.4208 29.6784 23.6579 29.4412 23.7735C28.9729 24.0107 28.2555 24.479 25.6796 23.5393C23.4415 22.7153 22.6204 20.7174 22.0305 18.4793C21.9589 18.2923 21.8286 18.1336 21.6593 18.0267C21.4899 17.9198 21.2905 17.8707 21.0909 17.8865C19.5613 17.8865 15.9152 20.2401 14.6198 25.7685C14.2671 27.1795 12.8413 28.0036 11.7978 27.885C10.6121 27.7694 9.91552 28.7091 9.32563 29.5331C9.23672 29.7465 9.11795 29.9461 8.97288 30.126C8.4571 30.7188 6.81191 31.9046 5.96116 32.4796C5.16045 31.5766 4.44684 30.6 3.82985 29.5628C7.68341 27.0491 7.68342 26.8297 7.56188 26.7171V26.2339C7.4318 25.6055 7.4584 24.9547 7.63934 24.339C7.82028 23.7233 8.14999 23.1616 8.59938 22.7034L9.07071 22.2351C9.07071 22.4693 9.1863 22.8279 9.1863 23.0562C9.30487 23.9988 9.65763 25.7626 11.3058 25.7626C11.8986 25.7626 12.1298 25.1697 12.2454 24.7043C12.2476 24.4846 12.331 24.2734 12.4796 24.1115C12.6419 23.8478 12.8416 23.6092 13.0725 23.403C13.4998 22.9935 13.8572 22.5169 14.1307 21.992C14.2783 21.742 14.3589 21.4582 14.3649 21.1679C14.4835 20.3468 14.7206 19.2856 15.7789 18.4645L15.7759 18.4823ZM14.9429 26.1153C16.2383 20.8211 19.5316 18.586 20.9426 18.586C21.0612 18.586 21.2954 18.586 21.2954 18.7046C22.0009 20.9397 22.825 23.2933 25.2942 24.233C27.7635 25.1727 28.8247 24.8259 29.5302 24.3516C29.8829 24.233 30.0015 23.9988 30.2357 23.7587C30.5884 23.2904 30.5884 23.406 30.707 23.406C31.1427 23.735 36.2354 26.1865 37.5248 26.8238C36.4106 29.6534 34.6325 32.1737 32.3403 34.1722C32.7286 33.1466 33.5497 31.6704 35.2868 29.9956C35.4637 29.836 35.5827 29.6223 35.6251 29.3878C35.6675 29.1534 35.6308 28.9116 35.521 28.7002C34.9281 27.4077 32.3462 25.8782 30.9323 25.8782C30.1286 25.9091 29.335 26.0682 28.5816 26.3495C27.8731 26.5837 27.052 26.9423 26.2279 26.8178C24.6984 26.5837 23.5216 26.3495 22.1106 23.406C21.4051 21.995 20.8152 21.2895 20.2282 21.2895C19.6413 21.2895 19.2856 21.7608 19.0425 22.1135C18.6898 22.5849 17.8568 24.5828 17.6315 25.7596C17.3944 27.055 17.0387 27.8761 16.2206 29.1715C15.2752 30.5964 13.9217 31.7029 12.3373 32.3462C9.94812 33.3037 9.22187 34.4568 9.03512 35.2809C8.04953 34.5729 7.1343 33.7718 6.30206 32.8887C7.17356 32.2692 8.78317 31.1101 9.04402 30.5825C9.23573 30.415 9.39544 30.2142 9.51535 29.9896C9.98371 29.2812 10.5736 28.4601 11.3977 28.5757C12.8087 28.8128 14.4538 27.8702 14.9252 26.1064L14.9429 26.1153ZM9.88589 6.70521C8.62583 7.46057 7.17454 7.83626 5.70624 7.78717C8.02109 5.06828 11.0636 3.06625 14.4765 2.01611C17.8895 0.965979 21.5312 0.911337 24.9741 1.85861C24.6597 1.94152 24.3381 1.99413 24.0136 2.01571H20.003C18.0021 2.01571 17.4122 2.2499 16.3539 2.83683C16.0538 3.01876 15.7396 3.17637 15.4143 3.30815C14.5901 3.70893 13.8025 4.18106 13.0606 4.71915C12.0706 5.48866 11.0072 6.15886 9.88589 6.72003V6.70521ZM18.4823 25.9997C18.7165 24.814 19.422 22.9406 19.7747 22.4692C19.8933 22.3507 20.1275 21.9979 20.3676 21.9979C20.6077 21.9979 21.0731 22.2351 21.7786 23.7765C23.071 26.5985 24.3664 27.304 26.3673 27.4226C27.3069 27.5382 28.1458 27.1854 28.9551 26.9512C29.6313 26.6835 30.3456 26.5245 31.0716 26.4799C32.2573 26.4799 34.602 27.7753 35.0704 28.9521C35.1242 29.0487 35.1421 29.1612 35.1209 29.2697C35.0998 29.3782 35.0409 29.4757 34.9548 29.545C32.53 31.8868 31.7712 33.8402 31.534 34.8807C28.469 37.2728 24.7354 38.6514 20.8513 38.8251C16.9673 38.9988 13.1255 37.959 9.8592 35.85C9.8592 35.2927 10.1764 34.027 12.8235 32.9628C14.5097 32.2686 15.9455 31.0789 16.9409 29.5509C17.8805 28.2585 18.1266 27.3158 18.4704 26.0234L18.4823 25.9997Z" fill="#D24A43"/>
<mask id="path-2-inside-1" fill="white">
<path fill-rule="evenodd" clip-rule="evenodd" d="M14.8227 33.7631C14.0016 34.3559 13.5303 34.9488 13.637 35.4082C13.7437 35.8677 14.1054 36.3509 14.9295 36.5939C16.3743 37.0577 17.8821 37.2957 19.3996 37.2994C25.3993 37.2994 30.1036 33.4192 31.0462 32.1238C31.8703 30.9381 32.2319 30.0073 31.9889 29.4174C31.7517 28.9491 31.396 28.7119 30.8032 28.4777C30.3318 28.3592 29.6175 28.4777 28.6837 28.7119C27.609 29.0015 26.5032 29.1598 25.3904 29.1832C23.8608 29.1832 22.8026 28.8305 21.8599 27.9975C21.1544 27.4047 20.6742 27.0579 20.2148 27.0579C19.5093 27.0579 19.3907 27.879 19.2721 28.2436V28.3621C18.4718 31.4213 14.8227 33.7631 14.8227 33.7631ZM15.2941 35.8795C14.7012 35.761 14.3544 35.5268 14.3544 35.2867C14.3544 35.1711 14.3544 34.8183 15.2941 34.2284C15.4126 34.1128 19.1773 31.7592 20.0013 28.4659V28.3473C20.1169 27.876 20.1169 27.6418 20.3541 27.6418C20.5912 27.6418 20.9469 27.7604 21.8807 28.3473C22.8233 29.286 24.1177 29.7563 25.7639 29.7583C26.9156 29.7343 28.0607 29.5762 29.1758 29.287C29.6788 29.1695 30.1902 29.0912 30.7054 29.0528H30.9395C31.0903 29.1004 31.2302 29.1773 31.3513 29.279C31.4723 29.3808 31.5721 29.5054 31.645 29.6457C31.7636 30.0014 31.4108 30.7069 30.7054 31.7651C29.8813 32.8234 25.2926 36.588 19.53 36.588C18.0883 36.579 16.6577 36.3357 15.2941 35.8677V35.8795Z"/>
</mask>
<path fill-rule="evenodd" clip-rule="evenodd" d="M14.8227 33.7631C14.0016 34.3559 13.5303 34.9488 13.637 35.4082C13.7437 35.8677 14.1054 36.3509 14.9295 36.5939C16.3743 37.0577 17.8821 37.2957 19.3996 37.2994C25.3993 37.2994 30.1036 33.4192 31.0462 32.1238C31.8703 30.9381 32.2319 30.0073 31.9889 29.4174C31.7517 28.9491 31.396 28.7119 30.8032 28.4777C30.3318 28.3592 29.6175 28.4777 28.6837 28.7119C27.609 29.0015 26.5032 29.1598 25.3904 29.1832C23.8608 29.1832 22.8026 28.8305 21.8599 27.9975C21.1544 27.4047 20.6742 27.0579 20.2148 27.0579C19.5093 27.0579 19.3907 27.879 19.2721 28.2436V28.3621C18.4718 31.4213 14.8227 33.7631 14.8227 33.7631ZM15.2941 35.8795C14.7012 35.761 14.3544 35.5268 14.3544 35.2867C14.3544 35.1711 14.3544 34.8183 15.2941 34.2284C15.4126 34.1128 19.1773 31.7592 20.0013 28.4659V28.3473C20.1169 27.876 20.1169 27.6418 20.3541 27.6418C20.5912 27.6418 20.9469 27.7604 21.8807 28.3473C22.8233 29.286 24.1177 29.7563 25.7639 29.7583C26.9156 29.7343 28.0607 29.5762 29.1758 29.287C29.6788 29.1695 30.1902 29.0912 30.7054 29.0528H30.9395C31.0903 29.1004 31.2302 29.1773 31.3513 29.279C31.4723 29.3808 31.5721 29.5054 31.645 29.6457C31.7636 30.0014 31.4108 30.7069 30.7054 31.7651C29.8813 32.8234 25.2926 36.588 19.53 36.588C18.0883 36.579 16.6577 36.3357 15.2941 35.8677V35.8795Z" fill="#D24A43"/>
<path d="M14.8227 33.7631L14.2826 32.9215L14.2596 32.9363L14.2374 32.9523L14.8227 33.7631ZM14.9295 36.5939L15.2351 35.6418L15.2238 35.6382L15.2124 35.6348L14.9295 36.5939ZM19.3996 37.2994L19.3971 38.2994H19.3996V37.2994ZM31.0462 32.1238L31.8548 32.7122L31.8612 32.7034L31.8674 32.6945L31.0462 32.1238ZM31.9889 29.4174L32.9135 29.0364L32.8986 29.0004L32.881 28.9657L31.9889 29.4174ZM30.8032 28.4777L31.1705 27.5477L31.1101 27.5238L31.0471 27.508L30.8032 28.4777ZM28.6837 28.7119L28.4405 27.742L28.432 27.7441L28.4235 27.7464L28.6837 28.7119ZM25.3904 29.1832V30.1832H25.4009L25.4115 30.183L25.3904 29.1832ZM21.8599 27.9975L22.5221 27.2482L22.5128 27.2399L22.5033 27.232L21.8599 27.9975ZM19.2721 28.2436L18.3211 27.9343L18.2721 28.0851V28.2436H19.2721ZM19.2721 28.3621L20.2396 28.6152L20.2721 28.4908V28.3621H19.2721ZM15.2941 35.8795L15.098 36.8601L16.2941 37.0993V35.8795H15.2941ZM15.2941 34.2284L15.8257 35.0754L15.9159 35.0188L15.9922 34.9444L15.2941 34.2284ZM20.0013 28.4659L20.9714 28.7086L21.0013 28.5891V28.4659H20.0013ZM20.0013 28.3473L19.0301 28.1091L19.0013 28.2265V28.3473H20.0013ZM21.8807 28.3473L22.5863 27.6387L22.5073 27.56L22.4129 27.5007L21.8807 28.3473ZM25.7639 29.7583L25.7627 30.7583L25.7737 30.7583L25.7847 30.7581L25.7639 29.7583ZM29.1758 29.287L28.9484 28.3132L28.9365 28.316L28.9248 28.319L29.1758 29.287ZM30.7054 29.0528V28.0528H30.6681L30.631 28.0556L30.7054 29.0528ZM30.9395 29.0528L31.2407 28.0993L31.0937 28.0528H30.9395V29.0528ZM31.645 29.6457L32.5937 29.3294L32.5688 29.2547L32.5325 29.1847L31.645 29.6457ZM30.7054 31.7651L31.4943 32.3795L31.517 32.3505L31.5374 32.3198L30.7054 31.7651ZM19.53 36.588L19.5237 37.588H19.53V36.588ZM15.2941 35.8677L15.6187 34.9218L14.2941 34.4672V35.8677H15.2941ZM14.2374 32.9523C13.7833 33.2802 13.3703 33.6462 13.0783 34.0406C12.8033 34.412 12.5114 34.9817 12.663 35.6345L14.6111 35.182C14.656 35.3753 14.5464 35.4188 14.6856 35.2307C14.8079 35.0656 15.0411 34.8388 15.4081 34.5738L14.2374 32.9523ZM12.663 35.6345C12.8597 36.4815 13.5144 37.2192 14.6465 37.5531L15.2124 35.6348C14.9365 35.5534 14.7952 35.4496 14.7245 35.3783C14.6548 35.308 14.6247 35.2404 14.6111 35.182L12.663 35.6345ZM14.6238 37.5461C16.1667 38.0413 17.7767 38.2954 19.3971 38.2994L19.4021 36.2994C17.9875 36.2959 16.582 36.0741 15.2351 35.6418L14.6238 37.5461ZM19.3996 38.2994C22.6132 38.2994 25.4559 37.2618 27.6038 36.0722C29.7259 34.8969 31.2697 33.5163 31.8548 32.7122L30.2377 31.5354C29.8801 32.0267 28.6005 33.2339 26.6348 34.3226C24.695 35.397 22.1857 36.2994 19.3996 36.2994V38.2994ZM31.8674 32.6945C32.3034 32.0672 32.6541 31.4562 32.859 30.8847C33.0574 30.3317 33.1726 29.6653 32.9135 29.0364L31.0643 29.7984C31.0482 29.7594 31.1042 29.8534 30.9764 30.2096C30.8553 30.5474 30.6132 30.9947 30.2251 31.5531L31.8674 32.6945ZM32.881 28.9657C32.4838 28.1811 31.8623 27.8209 31.1705 27.5477L30.4358 29.4078C30.9297 29.6029 31.0197 29.717 31.0967 29.8691L32.881 28.9657ZM31.0471 27.508C30.6359 27.4045 30.1967 27.42 29.7933 27.4702C29.3788 27.5218 28.9207 27.6215 28.4405 27.742L28.927 29.6819C29.3805 29.5681 29.7464 29.4915 30.0404 29.4549C30.3454 29.4169 30.4991 29.4324 30.5592 29.4475L31.0471 27.508ZM28.4235 27.7464C27.4268 28.0149 26.4013 28.1617 25.3693 28.1835L25.4115 30.183C26.6051 30.1579 27.7912 29.9881 28.9439 29.6775L28.4235 27.7464ZM25.3904 28.1832C24.0473 28.1832 23.2431 27.8853 22.5221 27.2482L21.1978 28.7469C22.3621 29.7757 23.6744 30.1832 25.3904 30.1832V28.1832ZM22.5033 27.232C22.1501 26.9352 21.8015 26.6548 21.4629 26.4499C21.1214 26.2432 20.7024 26.0579 20.2148 26.0579V28.0579C20.1866 28.0579 20.2374 28.046 20.4273 28.1609C20.62 28.2775 20.8642 28.467 21.2166 28.7631L22.5033 27.232ZM20.2148 26.0579C19.3581 26.0579 18.8725 26.6056 18.6393 27.0465C18.4545 27.3961 18.3269 27.9165 18.3211 27.9343L20.2231 28.5528C20.2456 28.4835 20.2661 28.4102 20.2811 28.3562C20.298 28.2954 20.3119 28.2453 20.3274 28.1941C20.3589 28.0899 20.3851 28.0236 20.4074 27.9815C20.4296 27.9394 20.4269 27.9622 20.3798 27.9969C20.3177 28.0426 20.2489 28.0579 20.2148 28.0579V26.0579ZM18.2721 28.2436V28.3621H20.2721V28.2436H18.2721ZM18.3047 28.109C17.9751 29.3687 17.0244 30.5614 16.0562 31.487C15.5846 31.9379 15.1347 32.3011 14.8034 32.5509C14.6383 32.6754 14.5039 32.7707 14.4127 32.8337C14.3672 32.8652 14.3325 32.8885 14.3103 32.9033C14.2992 32.9106 14.2912 32.9159 14.2865 32.9189C14.2842 32.9205 14.2827 32.9214 14.282 32.9219C14.2817 32.9221 14.2816 32.9222 14.2817 32.9221C14.2817 32.922 14.2818 32.922 14.282 32.9219C14.2821 32.9218 14.2822 32.9217 14.2823 32.9217C14.2825 32.9216 14.2826 32.9215 14.8227 33.7631C15.3628 34.6047 15.3631 34.6045 15.3633 34.6044C15.3634 34.6043 15.3636 34.6042 15.3638 34.604C15.3642 34.6038 15.3646 34.6035 15.3651 34.6032C15.3661 34.6025 15.3673 34.6018 15.3688 34.6008C15.3716 34.599 15.3754 34.5966 15.38 34.5936C15.3892 34.5876 15.4018 34.5793 15.4176 34.5688C15.4492 34.5477 15.4937 34.5178 15.5495 34.4792C15.661 34.4022 15.818 34.2907 16.0074 34.1479C16.3853 33.8629 16.8977 33.4495 17.4384 32.9326C18.4948 31.9225 19.7688 30.4147 20.2396 28.6152L18.3047 28.109ZM15.4902 34.899C15.2674 34.8544 15.1632 34.8007 15.1427 34.7875C15.1339 34.7819 15.1761 34.8062 15.2272 34.8766C15.2825 34.9528 15.3544 35.0942 15.3544 35.2867H13.3544C13.3544 35.9182 13.7964 36.2997 14.0612 36.4699C14.3622 36.6634 14.7279 36.7861 15.098 36.8601L15.4902 34.899ZM15.3544 35.2867C15.3544 35.279 15.355 35.3349 15.339 35.3988C15.3238 35.4594 15.3038 35.4903 15.3042 35.4897C15.3136 35.4756 15.4201 35.3301 15.8257 35.0754L14.7624 33.3815C14.2284 33.7167 13.8651 34.0425 13.6395 34.3811C13.3786 34.7729 13.3544 35.1038 13.3544 35.2867H15.3544ZM15.9922 34.9444C15.9292 35.0058 15.8663 35.0461 15.9371 34.9957C15.9704 34.972 16.0091 34.945 16.0735 34.8995C16.194 34.8144 16.3631 34.6936 16.5657 34.5409C16.9699 34.2361 17.5095 33.8026 18.0749 33.2609C19.1844 32.198 20.4915 30.6265 20.9714 28.7086L19.0312 28.2232C18.6871 29.5986 17.6999 30.8505 16.6914 31.8167C16.1978 32.2895 15.7225 32.6719 15.3617 32.9439C15.1818 33.0795 15.031 33.1873 14.9197 33.2659C14.8681 33.3023 14.813 33.3409 14.7777 33.366C14.7591 33.3792 14.7373 33.3949 14.7169 33.4102C14.7128 33.4132 14.6537 33.4562 14.596 33.5124L15.9922 34.9444ZM21.0013 28.4659V28.3473H19.0013V28.4659H21.0013ZM20.9725 28.5855C21.0042 28.4564 21.0314 28.3289 21.0472 28.2589C21.0678 28.1679 21.0732 28.1562 21.0683 28.1693C21.064 28.1809 21.0126 28.3229 20.8557 28.4537C20.7727 28.5229 20.6782 28.574 20.5799 28.6054C20.4857 28.6355 20.406 28.6418 20.3541 28.6418V26.6418C20.1179 26.6418 19.8291 26.7056 19.5747 26.9178C19.3475 27.1073 19.2444 27.3373 19.1959 27.4664C19.1469 27.5969 19.1158 27.7321 19.0965 27.8176C19.0724 27.924 19.0563 28.0025 19.0301 28.1091L20.9725 28.5855ZM20.3541 28.6418C20.2873 28.6418 20.2942 28.6201 20.4551 28.6905C20.6232 28.7641 20.8968 28.91 21.3485 29.194L22.4129 27.5007C21.5099 26.9331 20.9203 26.6418 20.3541 26.6418V28.6418ZM21.1751 29.0559C22.3471 30.223 23.9188 30.7561 25.7627 30.7583L25.7651 28.7583C24.3166 28.7566 23.2995 28.349 22.5863 27.6387L21.1751 29.0559ZM25.7847 30.7581C27.0142 30.7325 28.2364 30.5636 29.4268 30.255L28.9248 28.319C27.8849 28.5887 26.8171 28.7362 25.7431 28.7585L25.7847 30.7581ZM29.4032 30.2608C29.8559 30.1551 30.3161 30.0846 30.7797 30.05L30.631 28.0556C30.0643 28.0978 29.5017 28.184 28.9484 28.3132L29.4032 30.2608ZM30.7054 30.0528H30.9395V28.0528H30.7054V30.0528ZM30.6383 30.0064C30.6638 30.0144 30.6875 30.0274 30.7079 30.0446L31.9946 28.5135C31.773 28.3272 31.5168 28.1865 31.2407 28.0993L30.6383 30.0064ZM30.7079 30.0446C30.7284 30.0618 30.7453 30.0829 30.7576 30.1066L32.5325 29.1847C32.399 28.9278 32.2163 28.6997 31.9946 28.5135L30.7079 30.0446ZM30.6963 29.9619C30.6494 29.821 30.6762 29.7367 30.6681 29.7757C30.6615 29.8078 30.6384 29.8871 30.5749 30.0259C30.4473 30.3047 30.2187 30.6924 29.8733 31.2104L31.5374 32.3198C31.8975 31.7796 32.198 31.2854 32.3936 30.858C32.4916 30.6437 32.5785 30.4137 32.6267 30.1804C32.6735 29.9541 32.7 29.6482 32.5937 29.3294L30.6963 29.9619ZM29.9164 31.1507C29.6163 31.5361 28.3882 32.6619 26.4912 33.6953C24.6192 34.715 22.1967 35.588 19.53 35.588V37.588C22.6259 37.588 25.379 36.5787 27.448 35.4516C29.4921 34.338 30.9704 33.0524 31.4943 32.3795L29.9164 31.1507ZM19.5363 35.588C18.203 35.5797 16.8798 35.3547 15.6187 34.9218L14.9695 36.8135C16.4356 37.3167 17.9737 37.5783 19.5237 37.588L19.5363 35.588ZM14.2941 35.8677V35.8795H16.2941V35.8677H14.2941Z" fill="#D24A43" mask="url(#path-2-inside-1)"/>
<path d="M60.5654 16H59.1572L54.5361 10.9346V16H53.374V6.00586H54.5361V10.8457L59.041 6.00586H60.374L55.9512 10.8594L60.5654 16ZM65.2617 16.1367C64.7741 16.1367 64.3275 16.0479 63.9219 15.8701C63.5208 15.6878 63.1836 15.4098 62.9102 15.0361H62.8281C62.8828 15.4736 62.9102 15.8883 62.9102 16.2803V19.3633H61.7754V8.50781H62.6982L62.8555 9.5332H62.9102C63.2018 9.12305 63.5413 8.82682 63.9287 8.64453C64.3161 8.46224 64.7604 8.37109 65.2617 8.37109C66.2552 8.37109 67.0208 8.71061 67.5586 9.38965C68.1009 10.0687 68.3721 11.0212 68.3721 12.2471C68.3721 13.4775 68.0964 14.4346 67.5449 15.1182C66.998 15.7972 66.237 16.1367 65.2617 16.1367ZM65.0977 9.33496C64.332 9.33496 63.7783 9.54688 63.4365 9.9707C63.0947 10.3945 62.9193 11.069 62.9102 11.9941V12.2471C62.9102 13.2998 63.0856 14.054 63.4365 14.5098C63.7874 14.9609 64.3503 15.1865 65.125 15.1865C65.7721 15.1865 66.278 14.9245 66.6426 14.4004C67.0117 13.8763 67.1963 13.154 67.1963 12.2334C67.1963 11.2992 67.0117 10.5837 66.6426 10.0869C66.278 9.58561 65.763 9.33496 65.0977 9.33496ZM74.9688 16L74.7432 14.9336H74.6885C74.3148 15.403 73.9411 15.722 73.5674 15.8906C73.1982 16.0547 72.7357 16.1367 72.1797 16.1367C71.4368 16.1367 70.8535 15.9453 70.4297 15.5625C70.0104 15.1797 69.8008 14.6351 69.8008 13.9287C69.8008 12.4157 71.0107 11.6227 73.4307 11.5498L74.7021 11.5088V11.0439C74.7021 10.4561 74.5745 10.0231 74.3193 9.74512C74.0687 9.46257 73.6654 9.32129 73.1094 9.32129C72.485 9.32129 71.7786 9.5127 70.9902 9.89551L70.6416 9.02734C71.0107 8.82682 71.4141 8.6696 71.8516 8.55566C72.2936 8.44173 72.7357 8.38477 73.1777 8.38477C74.071 8.38477 74.7318 8.58301 75.1602 8.97949C75.5931 9.37598 75.8096 10.0117 75.8096 10.8867V16H74.9688ZM72.4053 15.2002C73.1117 15.2002 73.6654 15.0065 74.0664 14.6191C74.472 14.2318 74.6748 13.6895 74.6748 12.9922V12.3154L73.54 12.3633C72.6377 12.3952 71.986 12.5365 71.585 12.7871C71.1885 13.0332 70.9902 13.4183 70.9902 13.9424C70.9902 14.3525 71.1133 14.6647 71.3594 14.8789C71.61 15.0931 71.9587 15.2002 72.4053 15.2002ZM81.1484 16.1367C80.0638 16.1367 79.223 15.804 78.626 15.1387C78.0335 14.4688 77.7373 13.5231 77.7373 12.3018C77.7373 11.0485 78.0381 10.0801 78.6396 9.39648C79.2458 8.71289 80.1071 8.37109 81.2236 8.37109C81.5837 8.37109 81.9437 8.40983 82.3037 8.4873C82.6637 8.56478 82.9463 8.65592 83.1514 8.76074L82.8027 9.72461C82.5521 9.62435 82.2786 9.54232 81.9824 9.47852C81.6862 9.41016 81.4242 9.37598 81.1963 9.37598C79.6742 9.37598 78.9131 10.3467 78.9131 12.2881C78.9131 13.2087 79.0977 13.915 79.4668 14.4072C79.8405 14.8994 80.3919 15.1455 81.1211 15.1455C81.7454 15.1455 82.3857 15.0111 83.042 14.7422V15.7471C82.5407 16.0068 81.9095 16.1367 81.1484 16.1367ZM85.9609 8.50781V11.6455H90.1582V8.50781H91.293V16H90.1582V12.623H85.9609V16H84.8262V8.50781H85.9609ZM100.166 12.2471C100.166 13.4684 99.8584 14.4232 99.2432 15.1113C98.6279 15.7949 97.778 16.1367 96.6934 16.1367C96.0234 16.1367 95.4287 15.9795 94.9092 15.665C94.3896 15.3506 93.9886 14.8994 93.7061 14.3115C93.4235 13.7236 93.2822 13.0355 93.2822 12.2471C93.2822 11.0257 93.5876 10.0755 94.1982 9.39648C94.8089 8.71289 95.6566 8.37109 96.7412 8.37109C97.7894 8.37109 98.6211 8.71973 99.2363 9.41699C99.8561 10.1143 100.166 11.0576 100.166 12.2471ZM94.458 12.2471C94.458 13.2041 94.6494 13.9333 95.0322 14.4346C95.415 14.9359 95.9779 15.1865 96.7207 15.1865C97.4635 15.1865 98.0264 14.9382 98.4092 14.4414C98.7965 13.9401 98.9902 13.2087 98.9902 12.2471C98.9902 11.2946 98.7965 10.5723 98.4092 10.0801C98.0264 9.58333 97.459 9.33496 96.707 9.33496C95.9642 9.33496 95.4036 9.57878 95.0254 10.0664C94.6471 10.554 94.458 11.2809 94.458 12.2471ZM102.538 16H101.212L103.365 12.835C102.786 12.7074 102.342 12.4613 102.032 12.0967C101.727 11.7275 101.574 11.265 101.574 10.709C101.574 10.0254 101.804 9.48763 102.265 9.0957C102.725 8.70378 103.368 8.50781 104.192 8.50781H107.528V16H106.394V13.0059H104.5L102.538 16ZM102.682 10.7227C102.682 11.5885 103.311 12.0215 104.568 12.0215H106.394V9.49219H104.336C103.233 9.49219 102.682 9.90234 102.682 10.7227ZM113.428 16.1367C112.94 16.1367 112.493 16.0479 112.088 15.8701C111.687 15.6878 111.35 15.4098 111.076 15.0361H110.994C111.049 15.4736 111.076 15.8883 111.076 16.2803V19.3633H109.941V8.50781H110.864L111.021 9.5332H111.076C111.368 9.12305 111.707 8.82682 112.095 8.64453C112.482 8.46224 112.926 8.37109 113.428 8.37109C114.421 8.37109 115.187 8.71061 115.725 9.38965C116.267 10.0687 116.538 11.0212 116.538 12.2471C116.538 13.4775 116.262 14.4346 115.711 15.1182C115.164 15.7972 114.403 16.1367 113.428 16.1367ZM113.264 9.33496C112.498 9.33496 111.944 9.54688 111.603 9.9707C111.261 10.3945 111.085 11.069 111.076 11.9941V12.2471C111.076 13.2998 111.252 14.054 111.603 14.5098C111.953 14.9609 112.516 15.1865 113.291 15.1865C113.938 15.1865 114.444 14.9245 114.809 14.4004C115.178 13.8763 115.362 13.154 115.362 12.2334C115.362 11.2992 115.178 10.5837 114.809 10.0869C114.444 9.58561 113.929 9.33496 113.264 9.33496ZM121.521 16.1367C120.437 16.1367 119.596 15.804 118.999 15.1387C118.407 14.4688 118.11 13.5231 118.11 12.3018C118.11 11.0485 118.411 10.0801 119.013 9.39648C119.619 8.71289 120.48 8.37109 121.597 8.37109C121.957 8.37109 122.317 8.40983 122.677 8.4873C123.037 8.56478 123.319 8.65592 123.524 8.76074L123.176 9.72461C122.925 9.62435 122.652 9.54232 122.355 9.47852C122.059 9.41016 121.797 9.37598 121.569 9.37598C120.047 9.37598 119.286 10.3467 119.286 12.2881C119.286 13.2087 119.471 13.915 119.84 14.4072C120.214 14.8994 120.765 15.1455 121.494 15.1455C122.118 15.1455 122.759 15.0111 123.415 14.7422V15.7471C122.914 16.0068 122.283 16.1367 121.521 16.1367ZM129.567 8.50781H130.812L127.578 12.124L131.078 16H129.752L126.334 12.2061V16H125.199V8.50781H126.334V12.1514L129.567 8.50781ZM133.539 8.50781V13.2588L133.491 14.5029L133.471 14.8926L137.524 8.50781H138.939V16H137.88V11.4199L137.9 10.5176L137.935 9.62891L133.888 16H132.473V8.50781H133.539ZM142.412 8.50781V13.2588L142.364 14.5029L142.344 14.8926L146.397 8.50781H147.812V16H146.753V11.4199L146.773 10.5176L146.808 9.62891L142.761 16H141.346V8.50781H142.412ZM144.552 7.5166C143.709 7.5166 143.093 7.35482 142.706 7.03125C142.319 6.70312 142.102 6.16536 142.057 5.41797H143.123C143.164 5.89193 143.287 6.22233 143.492 6.40918C143.702 6.59603 144.064 6.68945 144.579 6.68945C145.049 6.68945 145.395 6.58919 145.618 6.38867C145.846 6.18815 145.985 5.86458 146.035 5.41797H147.108C147.054 6.13802 146.824 6.66895 146.418 7.01074C146.012 7.34798 145.39 7.5166 144.552 7.5166ZM55.0078 30.165L52.4033 26.5078H53.6953L55.6709 29.3789L57.6396 26.5078H58.918L56.3135 30.165L59.0547 34H57.7695L55.6709 30.9648L53.5518 34H52.2666L55.0078 30.165ZM65.1523 34L64.9268 32.9336H64.8721C64.4984 33.403 64.1247 33.722 63.751 33.8906C63.3818 34.0547 62.9193 34.1367 62.3633 34.1367C61.6204 34.1367 61.0371 33.9453 60.6133 33.5625C60.194 33.1797 59.9844 32.6351 59.9844 31.9287C59.9844 30.4157 61.1943 29.6227 63.6143 29.5498L64.8857 29.5088V29.0439C64.8857 28.4561 64.7581 28.0231 64.5029 27.7451C64.2523 27.4626 63.849 27.3213 63.293 27.3213C62.6686 27.3213 61.9622 27.5127 61.1738 27.8955L60.8252 27.0273C61.1943 26.8268 61.5977 26.6696 62.0352 26.5557C62.4772 26.4417 62.9193 26.3848 63.3613 26.3848C64.2546 26.3848 64.9154 26.583 65.3438 26.9795C65.7767 27.376 65.9932 28.0117 65.9932 28.8867V34H65.1523ZM62.5889 33.2002C63.2952 33.2002 63.849 33.0065 64.25 32.6191C64.6556 32.2318 64.8584 31.6895 64.8584 30.9922V30.3154L63.7236 30.3633C62.8213 30.3952 62.1696 30.5365 61.7686 30.7871C61.3721 31.0332 61.1738 31.4183 61.1738 31.9424C61.1738 32.3525 61.2969 32.6647 61.543 32.8789C61.7936 33.0931 62.1423 33.2002 62.5889 33.2002ZM69.4043 26.5078V31.2588L69.3564 32.5029L69.3359 32.8926L73.3896 26.5078H74.8047V34H73.7451V29.4199L73.7656 28.5176L73.7998 27.6289L69.7529 34H68.3379V26.5078H69.4043ZM71.5439 25.5166C70.7008 25.5166 70.0856 25.3548 69.6982 25.0312C69.3109 24.7031 69.0944 24.1654 69.0488 23.418H70.1152C70.1562 23.8919 70.2793 24.2223 70.4844 24.4092C70.694 24.596 71.0563 24.6895 71.5713 24.6895C72.0407 24.6895 72.387 24.5892 72.6104 24.3887C72.8382 24.1882 72.9772 23.8646 73.0273 23.418H74.1006C74.0459 24.138 73.8158 24.6689 73.4102 25.0107C73.0046 25.348 72.3825 25.5166 71.5439 25.5166ZM81.5791 26.5078H82.8232L79.5898 30.124L83.0898 34H81.7637L78.3457 30.2061V34H77.2109V26.5078H78.3457V30.1514L81.5791 26.5078ZM85.5508 26.5078V31.2588L85.5029 32.5029L85.4824 32.8926L89.5361 26.5078H90.9512V34H89.8916V29.4199L89.9121 28.5176L89.9463 27.6289L85.8994 34H84.4844V26.5078H85.5508ZM94.4922 26.5078V29.6455H98.6895V26.5078H99.8242V34H98.6895V30.623H94.4922V34H93.3574V26.5078H94.4922ZM106.742 27.4785H103.365V34H102.23V26.5078H106.742V27.4785Z" fill="white"/>
</svg>
