<svg width="173" height="49" viewBox="0 0 173 49" fill="none" xmlns="http://www.w3.org/2000/svg">
<g clip-path="url(#clip0)">
<path fill-rule="evenodd" clip-rule="evenodd" d="M24.5 0.331064C19.7531 0.331064 15.1128 1.73873 11.1659 4.37604C7.21908 7.01335 4.14295 10.7618 2.32655 15.1475C0.510154 19.5331 0.035094 24.3589 0.961427 29.0145C1.88776 33.6702 4.17389 37.9466 7.53071 41.3029C10.8875 44.6592 15.1642 46.9447 19.82 47.8703C24.4758 48.796 29.3015 48.3202 33.6869 46.5031C38.0722 44.6861 41.8203 41.6094 44.457 37.6622C47.0937 33.7149 48.5007 29.0744 48.5 24.3275C48.5023 21.1753 47.8831 18.0535 46.6778 15.1409C45.4725 12.2282 43.7047 9.58178 41.4756 7.35299C39.2464 5.1242 36.5998 3.3568 33.6869 2.1519C30.7741 0.947008 27.6522 0.328258 24.5 0.331064ZM1.92642 24.3275C1.92575 19.2889 3.61963 14.3964 6.73567 10.4369C7.0601 10.4777 7.38691 10.4967 7.71388 10.4938C9.42997 10.4531 11.0972 9.91428 12.5125 8.94289C13.8289 8.21689 15.1021 7.41519 16.3257 6.54182C17.2152 5.89687 18.159 5.33036 19.1465 4.84863C19.509 4.63225 19.8871 4.44318 20.2777 4.28304C21.5476 3.71745 22.1132 3.43645 24.3719 3.43645H29.1705C30.0564 3.35725 30.9329 3.19528 31.7886 2.95267C34.8068 3.99891 37.5713 5.66784 39.903 7.85124C42.2347 10.0346 44.0814 12.6837 45.3235 15.6268C43.456 15.3706 39.2372 14.5596 37.4978 12.4822C37.3376 12.0917 37.1485 11.7136 36.9322 11.3511C36.0856 9.80017 34.9544 7.39909 30.8602 6.97579C27.8971 6.55249 26.6272 7.26036 25.0727 8.10696C23.2297 9.17239 21.2277 9.93502 19.143 10.3657C17.7201 10.789 16.6032 11.7886 15.4756 12.9055C14.0527 14.3284 12.6512 15.7299 10.5347 15.3066C9.69001 15.1615 8.824 15.1999 7.99543 15.419C7.16686 15.6381 6.39512 16.0329 5.73256 16.5765C4.9675 17.1692 4.33401 17.9145 3.87229 18.7651C3.41058 19.6156 3.13071 20.5529 3.05046 21.5174C2.95341 22.5713 2.56275 23.5769 1.92286 24.42V24.3382L1.92642 24.3275ZM10.5383 16.2813C12.9358 16.7046 14.4902 15.2924 16.0411 13.7415C17.1723 12.6103 18.1754 11.625 19.4311 11.3404C21.5492 10.8074 23.5891 10.0015 25.4996 8.94289C27.1963 7.954 28.1816 7.52004 30.8637 7.81172C34.677 8.23502 35.6659 10.3551 36.3702 11.7637C36.6547 12.3293 36.7935 12.7526 37.0816 13.0372C39.0807 15.3884 43.9255 16.1746 45.6472 16.3702C46.3343 18.1801 46.7827 20.0718 46.9811 21.9976C44.9927 20.7526 41.1865 18.4404 39.6214 18.1167C38.9099 17.978 38.3515 17.978 37.7859 17.8357C36.797 17.6935 36.2314 17.6934 35.2461 17.2701C34.5347 16.9891 34.2572 16.1425 33.9727 15.1359C33.7983 14.5015 33.5599 13.8866 33.2612 13.3004C32.2724 11.6072 30.4369 11.0428 27.7548 11.6072C25.6205 12.0305 18.0153 14.7126 16.0376 18.3657C15.3261 19.7886 14.4867 19.7886 12.9322 19.7886C11.8893 19.7487 10.8456 19.8431 9.82682 20.0696C7.00602 20.6352 6.44041 23.0327 5.87483 25.1528C5.73254 25.7148 5.59381 26.2804 5.45153 26.7037C4.94997 28.2119 3.31726 28.717 2.3924 28.8842C2.14866 27.7123 1.99878 26.5228 1.9442 25.3271C2.97699 24.4513 3.66838 23.2398 3.89706 21.9051C3.95751 21.0257 4.20258 20.1689 4.61628 19.3905C5.02999 18.6121 5.60305 17.9296 6.29813 17.3875C6.88282 16.9078 7.56335 16.5587 8.29405 16.3636C9.02474 16.1685 9.7887 16.132 10.5347 16.2564L10.5383 16.2813ZM12.9358 20.3755C14.4902 20.3755 15.7601 20.5178 16.749 18.6823C18.4422 15.4347 25.3608 12.7526 27.9006 12.1906C30.1594 11.625 31.8526 12.0483 32.5605 13.4605C32.8117 14.0016 33.0003 14.5697 33.1225 15.1536C33.4071 16.1425 33.6881 17.2879 34.8192 17.6934C35.6734 18.0612 36.5772 18.3009 37.5013 18.4049C38.1196 18.4393 38.7331 18.5334 39.3332 18.6859C41.0051 19.0203 45.3021 21.7201 47.0487 22.8513C47.0807 23.3422 47.0985 23.8331 47.0985 24.3311C47.0988 25.5007 47.0084 26.6685 46.8281 27.8242C45.9673 27.5254 42.5418 25.9353 39.6143 24.4733C39.0522 24.05 38.4867 24.1923 38.1914 24.6156L37.7681 24.1923C36.7792 23.0612 36.3453 22.6379 35.9326 22.6379C35.6797 22.6465 35.4355 22.7327 35.2331 22.8848C35.0308 23.0368 34.8801 23.2474 34.8015 23.488C34.5436 23.5334 34.3126 23.6752 34.1554 23.8846C33.9982 24.094 33.9265 24.3553 33.9549 24.6156V25.7468C33.7346 25.6141 33.4944 25.518 33.2434 25.4622C32.8201 25.32 32.6778 25.1812 32.532 25.1812C32.3862 25.1812 31.97 24.8967 31.97 24.1923V22.2146C31.9064 21.7206 31.7635 21.2401 31.5467 20.7917C31.2621 20.3649 30.6965 19.3689 29.8499 19.3689C29.5862 19.3714 29.3328 19.4715 29.1385 19.6499V18.9384C29.1385 18.7962 29.2808 18.227 29.2808 18.0918C29.4195 17.665 28.8575 16.8184 28.5694 16.3951C28.5694 16.2564 28.4271 15.9718 28.0038 15.8331C27.7228 15.6908 27.4418 15.6908 26.8762 15.9718C25.8873 16.3951 24.7419 16.9607 24.3364 17.665C24.0188 17.8327 23.688 17.9742 23.3475 18.0883C22.9004 18.218 22.4731 18.4083 22.0776 18.6539L18.6876 21.336C16.8522 22.6058 16.5534 24.4413 16.4289 25.4302C16.3967 25.6699 16.3504 25.9075 16.2901 26.1416C16.0169 26.607 15.6845 27.0351 15.3012 27.4151C15.0167 27.8384 14.5898 28.2617 14.4546 28.5427C14.3195 28.8237 14.1701 29.2542 14.0314 29.5316C13.9546 29.6073 13.9046 29.7059 13.8891 29.8126C13.4658 29.6739 13.3235 28.966 13.0425 27.6783C12.9002 26.6894 12.7615 25.5441 11.7726 25.4196C11.6303 25.4196 11.0611 25.2773 9.93709 26.4084C9.25786 27.1098 8.75122 27.9596 8.45734 28.8907C8.16345 29.8217 8.09038 30.8084 8.24389 31.7726C7.74945 32.2635 6.08472 33.3946 4.35595 34.5187C3.55035 32.945 2.93307 31.2818 2.51689 29.5636C3.58403 29.3644 5.46221 28.7419 6.26613 26.8317C6.40841 26.4084 6.54714 25.8428 6.68943 25.2773C7.25501 23.3031 7.82059 21.183 10.0794 20.621C11.0013 20.3924 11.9512 20.2966 12.9002 20.3364L12.9358 20.3755ZM19.4311 22.5098L22.8175 19.8277C23.1348 19.6594 23.4656 19.5178 23.8064 19.4044C24.5178 19.2621 25.2292 18.9811 25.4996 18.4156C25.6418 17.9923 26.9224 17.4267 27.335 17.2844C27.4466 17.5815 27.5884 17.8664 27.7583 18.1345C27.7583 18.4155 27.616 18.846 27.616 18.9811C27.4773 20.6743 28.0393 21.3786 28.4626 21.6632C28.6188 21.7909 28.808 21.8717 29.0082 21.8962C29.2084 21.9208 29.4114 21.8881 29.5938 21.8019L30.0171 21.3786C30.0275 21.4879 30.0782 21.5893 30.1594 21.6632C30.2749 21.9377 30.3688 22.2207 30.4404 22.5098V24.3453C30.4159 24.8763 30.5691 25.4003 30.8757 25.8345C31.1824 26.2687 31.625 26.5883 32.1336 26.7428C32.2866 26.742 32.4355 26.7921 32.5569 26.8851C33.8268 27.4507 34.2537 27.5965 34.6912 27.3084C35.1287 27.0203 35.2532 26.4618 35.2532 24.9073C35.3997 24.9112 35.5442 24.8735 35.6701 24.7985C35.7961 24.7236 35.8982 24.6146 35.9646 24.484V24.3453L36.8112 25.1919C37.9389 26.3195 38.3622 26.7428 38.9455 26.4618C39.0878 26.3195 39.2265 26.0385 39.3688 25.8962C41.2755 26.9135 45.1314 28.8486 46.6005 29.2221C46.4034 30.1041 46.1539 30.9736 45.8535 31.8259C42.8655 30.4031 38.227 28.1443 37.8179 27.874C37.2523 27.3084 36.6903 27.874 36.3951 28.2973C36.2528 28.436 36.114 28.7206 35.8295 28.8593C35.2674 29.1439 34.4066 29.7059 31.3155 28.5783C28.6298 27.5894 27.6445 25.1919 26.9366 22.5063C26.8506 22.2819 26.6943 22.0913 26.4911 21.9631C26.2879 21.8349 26.0486 21.7758 25.809 21.7948C23.9736 21.7948 19.5983 24.6192 18.0438 31.2533C17.6205 32.9464 15.9095 33.9353 14.6574 33.793C13.2345 33.6543 12.3986 34.7819 11.6908 35.7708C11.5841 36.0268 11.4415 36.2663 11.2675 36.4822C10.6485 37.1937 8.6743 38.6165 7.6534 39.3066C6.69254 38.223 5.83621 37.0511 5.09582 35.8064C9.72009 32.7899 9.7201 32.5267 9.57426 32.3915V31.8117C9.41816 31.0576 9.45008 30.2767 9.6672 29.5378C9.88433 28.799 10.28 28.1249 10.8193 27.5752L11.3849 27.0131C11.3849 27.2942 11.5236 27.7246 11.5236 27.9985C11.6658 29.1297 12.0892 31.2461 14.0669 31.2461C14.7784 31.2461 15.0558 30.5347 15.1945 29.9762C15.1971 29.7125 15.2972 29.4591 15.4756 29.2648C15.6702 28.9484 15.9099 28.6621 16.187 28.4147C16.6997 27.9232 17.1287 27.3513 17.4569 26.7215C17.6339 26.4214 17.7307 26.0809 17.7379 25.7326C17.8802 24.7472 18.1647 23.4738 19.4346 22.4885L19.4311 22.5098ZM18.4315 31.6694C19.986 25.3164 23.938 22.6343 25.6312 22.6343C25.7735 22.6343 26.0545 22.6343 26.0545 22.7766C26.9011 25.4587 27.89 28.283 30.853 29.4107C33.8161 30.5383 35.0896 30.1221 35.9362 29.5529C36.3595 29.4107 36.5018 29.1297 36.7828 28.8415C37.2061 28.2795 37.2061 28.4182 37.3484 28.4182C37.8713 28.8131 43.9824 31.7548 45.5298 32.5196C44.1927 35.9151 42.059 38.9395 39.3084 41.3377C39.7744 40.107 40.7597 38.3355 42.8442 36.3257C43.0565 36.1343 43.1992 35.8778 43.2501 35.5965C43.3009 35.3152 43.257 35.0249 43.1252 34.7713C42.4137 33.2204 39.3155 31.3849 37.6187 31.3849C36.6543 31.4219 35.702 31.6129 34.7979 31.9505C33.9477 32.2315 32.9624 32.6619 31.9735 32.5125C30.1381 32.2315 28.7259 31.9505 27.0327 28.4182C26.1861 26.725 25.4782 25.8784 24.7739 25.8784C24.0696 25.8784 23.6427 26.444 23.351 26.8673C22.9277 27.4329 21.9282 29.8304 21.6578 31.2426C21.3733 32.7971 20.9464 33.7824 19.9647 35.3368C18.8302 37.0468 17.2061 38.3746 15.3048 39.1465C12.4377 40.2955 11.5662 41.6792 11.3421 42.6681C10.1594 41.8186 9.06117 40.8573 8.06248 39.7975C9.10827 39.0541 11.0398 37.6632 11.3528 37.03C11.5829 36.8291 11.7745 36.588 11.9184 36.3186C12.4804 35.4685 13.1883 34.4831 14.1772 34.6219C15.8704 34.9064 17.8446 33.7753 18.4102 31.6588L18.4315 31.6694ZM12.3631 8.37731C10.851 9.28374 9.10945 9.73456 7.34749 9.67566C10.1253 6.41299 13.7763 4.01055 17.8718 2.75039C21.9673 1.49023 26.3374 1.42466 30.4689 2.56138C30.0916 2.66087 29.7057 2.72401 29.3164 2.74991H24.5035C22.1025 2.74991 21.3946 3.03093 20.1247 3.73525C19.7645 3.95357 19.3875 4.1427 18.9971 4.30083C18.0081 4.78177 17.063 5.34833 16.1727 5.99403C14.9847 6.91745 13.7087 7.72168 12.3631 8.3951V8.37731ZM22.6788 31.5307C22.9598 30.1079 23.8064 27.8597 24.2297 27.2942C24.3719 27.1519 24.653 26.7286 24.9411 26.7286C25.2292 26.7286 25.7877 27.0132 26.6343 28.8629C28.1852 32.2493 29.7397 33.0959 32.1407 33.2381C33.2683 33.3769 34.275 32.9536 35.2461 32.6725C36.0576 32.3513 36.9148 32.1604 37.7859 32.107C39.2088 32.107 42.0224 33.6614 42.5845 35.0736C42.649 35.1895 42.6705 35.3245 42.6451 35.4547C42.6197 35.5849 42.5491 35.7019 42.4457 35.785C39.536 38.5952 38.6254 40.9393 38.3408 42.1879C34.6629 45.0584 30.1825 46.7127 25.5216 46.9212C20.8607 47.1296 16.2506 45.8818 12.331 43.3511C12.331 42.6823 12.7117 41.1634 15.8882 39.8864C17.9117 39.0534 19.6346 37.6257 20.829 35.7922C21.9567 34.2412 22.2519 33.1101 22.6645 31.5592L22.6788 31.5307Z" fill="#C1C1C1"/>
<mask id="path-2-inside-1" fill="white">
<path fill-rule="evenodd" clip-rule="evenodd" d="M18.2875 40.8465C17.3022 41.558 16.7366 42.2694 16.8646 42.8207C16.9927 43.3721 17.4267 43.9519 18.4155 44.2436C20.1494 44.8001 21.9587 45.0857 23.7797 45.0902C30.9793 45.0902 36.6245 40.4339 37.7557 38.8794C38.7446 37.4566 39.1785 36.3396 38.8868 35.6318C38.6023 35.0697 38.1754 34.7852 37.464 34.5042C36.8984 34.3619 36.0411 34.5041 34.9206 34.7852C33.631 35.1327 32.304 35.3226 30.9687 35.3508C29.1332 35.3508 27.8633 34.9275 26.7321 33.9279C25.8855 33.2165 25.3093 32.8003 24.7579 32.8003C23.9113 32.8003 23.769 33.7856 23.6267 34.2231V34.3654C22.6663 38.0364 18.2875 40.8465 18.2875 40.8465ZM18.8531 43.3863C18.1417 43.244 17.7255 42.963 17.7255 42.6749C17.7255 42.5362 17.7255 42.1129 18.8531 41.405C18.9954 41.2663 23.5129 38.4419 24.5018 34.4899V34.3476C24.6405 33.7821 24.6405 33.501 24.9251 33.501C25.2097 33.501 25.6365 33.6433 26.757 34.3476C27.8882 35.4741 29.4415 36.0385 31.4169 36.0408C32.799 36.0121 34.173 35.8222 35.5111 35.4752C36.1148 35.3343 36.7284 35.2403 37.3466 35.1942H37.6276C37.8086 35.2514 37.9765 35.3436 38.1217 35.4657C38.267 35.5878 38.3868 35.7373 38.4742 35.9057C38.6165 36.3325 38.1932 37.1791 37.3466 38.449C36.3577 39.7189 30.8513 44.2365 23.9362 44.2365C22.2062 44.2256 20.4894 43.9337 18.8531 43.3721V43.3863Z"/>
</mask>
<path fill-rule="evenodd" clip-rule="evenodd" d="M18.2875 40.8465C17.3022 41.558 16.7366 42.2694 16.8646 42.8207C16.9927 43.3721 17.4267 43.9519 18.4155 44.2436C20.1494 44.8001 21.9587 45.0857 23.7797 45.0902C30.9793 45.0902 36.6245 40.4339 37.7557 38.8794C38.7446 37.4566 39.1785 36.3396 38.8868 35.6318C38.6023 35.0697 38.1754 34.7852 37.464 34.5042C36.8984 34.3619 36.0411 34.5041 34.9206 34.7852C33.631 35.1327 32.304 35.3226 30.9687 35.3508C29.1332 35.3508 27.8633 34.9275 26.7321 33.9279C25.8855 33.2165 25.3093 32.8003 24.7579 32.8003C23.9113 32.8003 23.769 33.7856 23.6267 34.2231V34.3654C22.6663 38.0364 18.2875 40.8465 18.2875 40.8465ZM18.8531 43.3863C18.1417 43.244 17.7255 42.963 17.7255 42.6749C17.7255 42.5362 17.7255 42.1129 18.8531 41.405C18.9954 41.2663 23.5129 38.4419 24.5018 34.4899V34.3476C24.6405 33.7821 24.6405 33.501 24.9251 33.501C25.2097 33.501 25.6365 33.6433 26.757 34.3476C27.8882 35.4741 29.4415 36.0385 31.4169 36.0408C32.799 36.0121 34.173 35.8222 35.5111 35.4752C36.1148 35.3343 36.7284 35.2403 37.3466 35.1942H37.6276C37.8086 35.2514 37.9765 35.3436 38.1217 35.4657C38.267 35.5878 38.3868 35.7373 38.4742 35.9057C38.6165 36.3325 38.1932 37.1791 37.3466 38.449C36.3577 39.7189 30.8513 44.2365 23.9362 44.2365C22.2062 44.2256 20.4894 43.9337 18.8531 43.3721V43.3863Z" fill="#C1C1C1"/>
<path d="M18.2875 40.8465L17.7474 40.0049L17.7243 40.0197L17.7021 40.0358L18.2875 40.8465ZM18.4155 44.2436L18.7211 43.2914L18.7098 43.2878L18.6985 43.2844L18.4155 44.2436ZM23.7797 45.0902L23.7772 46.0902H23.7797V45.0902ZM37.7557 38.8794L38.5643 39.4678L38.5706 39.459L38.5768 39.4501L37.7557 38.8794ZM38.8868 35.6318L39.8114 35.2508L39.7966 35.2148L39.779 35.18L38.8868 35.6318ZM37.464 34.5042L37.8314 33.5741L37.771 33.5502L37.708 33.5344L37.464 34.5042ZM34.9206 34.7852L34.6774 33.8152L34.6689 33.8173L34.6604 33.8196L34.9206 34.7852ZM30.9687 35.3508V36.3508H30.9792L30.9897 36.3505L30.9687 35.3508ZM26.7321 33.9279L27.3943 33.1785L27.385 33.1703L27.3755 33.1623L26.7321 33.9279ZM23.6267 34.2231L22.6758 33.9139L22.6267 34.0646V34.2231H23.6267ZM23.6267 34.3654L24.5942 34.6185L24.6267 34.4941V34.3654H23.6267ZM18.8531 43.3863L18.657 44.3669L19.8531 44.6061V43.3863H18.8531ZM18.8531 41.405L19.3848 42.2519L19.4749 42.1953L19.5512 42.121L18.8531 41.405ZM24.5018 34.4899L25.4719 34.7327L25.5018 34.6131V34.4899H24.5018ZM24.5018 34.3476L23.5306 34.1094L23.5018 34.2268V34.3476H24.5018ZM26.757 34.3476L27.4626 33.639L27.3836 33.5604L27.2892 33.501L26.757 34.3476ZM31.4169 36.0408L31.4157 37.0408L31.4267 37.0409L31.4377 37.0406L31.4169 36.0408ZM35.5111 35.4752L35.2837 34.5014L35.2719 34.5042L35.2601 34.5073L35.5111 35.4752ZM37.3466 35.1942V34.1942H37.3094L37.2723 34.197L37.3466 35.1942ZM37.6276 35.1942L37.9288 34.2407L37.7818 34.1942H37.6276V35.1942ZM38.4742 35.9057L39.4229 35.5894L39.398 35.5147L39.3617 35.4447L38.4742 35.9057ZM37.3466 38.449L38.1356 39.0634L38.1582 39.0343L38.1787 39.0037L37.3466 38.449ZM23.9362 44.2365L23.9299 45.2365H23.9362V44.2365ZM18.8531 43.3721L19.1777 42.4262L17.8531 41.9716V43.3721H18.8531ZM17.7021 40.0358C17.1659 40.4229 16.6883 40.8482 16.3549 41.2986C16.0384 41.726 15.7283 42.3483 15.8906 43.047L17.8387 42.5945C17.8729 42.7418 17.7815 42.7328 17.9622 42.4887C18.1259 42.2677 18.4237 41.9816 18.8729 41.6573L17.7021 40.0358ZM15.8906 43.047C16.1086 43.9859 16.8357 44.8202 18.1326 45.2027L18.6985 43.2844C18.3402 43.1788 18.1396 43.0386 18.0275 42.9256C17.9165 42.8136 17.863 42.6989 17.8387 42.5945L15.8906 43.047ZM18.1099 45.1957C19.9418 45.7837 21.8534 46.0854 23.7772 46.0902L23.7822 44.0902C22.0641 44.0859 20.357 43.8165 18.7211 43.2914L18.1099 45.1957ZM23.7797 46.0902C27.5933 46.0902 30.9712 44.8585 33.5279 43.4425C36.0587 42.0408 37.8849 40.4014 38.5643 39.4678L36.9471 38.291C36.4953 38.9119 34.9333 40.3779 32.5589 41.6929C30.2103 42.9937 27.1658 44.0902 23.7797 44.0902V46.0902ZM38.5768 39.4501C39.0952 38.7042 39.5052 37.9875 39.7428 37.325C39.9737 36.681 40.0949 35.9386 39.8114 35.2508L37.9623 36.0127C37.9705 36.0327 38.0205 36.2028 37.8602 36.6499C37.7064 37.0786 37.405 37.6318 36.9345 38.3087L38.5768 39.4501ZM39.779 35.18C39.3343 34.3018 38.6417 33.8942 37.8314 33.5741L37.0966 35.4342C37.7091 35.6762 37.8702 35.8377 37.9947 36.0835L39.779 35.18ZM37.708 33.5344C37.2496 33.4191 36.7512 33.4345 36.2769 33.4936C35.7915 33.554 35.251 33.6713 34.6774 33.8152L35.1639 35.7551C35.7108 35.618 36.1591 35.5237 36.5239 35.4783C36.8998 35.4315 37.1128 35.447 37.22 35.4739L37.708 33.5344ZM34.6604 33.8196C33.4488 34.1461 32.2021 34.3245 30.9476 34.351L30.9897 36.3505C32.4059 36.3207 33.8132 36.1193 35.1808 35.7507L34.6604 33.8196ZM30.9687 34.3508C29.3197 34.3508 28.3038 33.9822 27.3943 33.1785L26.07 34.6773C27.4228 35.8727 28.9467 36.3508 30.9687 36.3508V34.3508ZM27.3755 33.1623C26.9518 32.8063 26.5439 32.4789 26.1521 32.2418C25.7575 32.0029 25.2915 31.8003 24.7579 31.8003V33.8003C24.7757 33.8003 24.8735 33.8057 25.1165 33.9528C25.3624 34.1016 25.6659 34.3381 26.0888 34.6935L27.3755 33.1623ZM24.7579 31.8003C23.8307 31.8003 23.3039 32.3891 23.0442 32.8802C22.8328 33.2799 22.6934 33.8596 22.6758 33.9139L24.5777 34.5324C24.6032 34.454 24.6266 34.3701 24.6448 34.3046C24.6649 34.2324 24.6822 34.1699 24.7016 34.1059C24.7409 33.976 24.7767 33.8824 24.8122 33.8151C24.8477 33.748 24.8619 33.7479 24.8373 33.7661C24.7976 33.7953 24.7567 33.8003 24.7579 33.8003V31.8003ZM22.6267 34.2231V34.3654H24.6267V34.2231H22.6267ZM22.6593 34.1123C22.2497 35.6779 21.0765 37.1406 19.9059 38.2598C19.333 38.8075 18.7869 39.2484 18.3847 39.5516C18.1841 39.7028 18.0206 39.8189 17.9091 39.8958C17.8534 39.9343 17.8109 39.963 17.7832 39.9813C17.7694 39.9905 17.7594 39.9971 17.7533 40.0011C17.7503 40.003 17.7483 40.0043 17.7473 40.005C17.7468 40.0053 17.7465 40.0055 17.7465 40.0055C17.7466 40.0055 17.7466 40.0054 17.7468 40.0053C17.7468 40.0053 17.747 40.0052 17.747 40.0052C17.7472 40.0051 17.7474 40.0049 18.2875 40.8465C18.8276 41.6881 18.8278 41.688 18.828 41.6878C18.8281 41.6878 18.8284 41.6876 18.8286 41.6875C18.829 41.6872 18.8295 41.6869 18.83 41.6866C18.8311 41.6859 18.8324 41.685 18.834 41.684C18.8373 41.6819 18.8415 41.6791 18.8468 41.6757C18.8574 41.6688 18.872 41.6591 18.8905 41.6468C18.9275 41.6222 18.98 41.5869 19.0459 41.5414C19.1777 41.4503 19.3638 41.3182 19.5887 41.1486C20.0375 40.8102 20.6462 40.3191 21.288 39.7054C22.5469 38.5018 24.0434 36.7239 24.5942 34.6185L22.6593 34.1123ZM19.0492 42.4057C18.7671 42.3493 18.616 42.278 18.5632 42.2441C18.5384 42.2281 18.5682 42.2414 18.6109 42.3003C18.6579 42.365 18.7255 42.4944 18.7255 42.6749H16.7255C16.7255 43.3304 17.1848 43.7356 17.4817 43.9265C17.815 44.1407 18.2276 44.281 18.657 44.3669L19.0492 42.4057ZM18.7255 42.6749C18.7255 42.6614 18.7261 42.7086 18.713 42.7608C18.7008 42.8096 18.6866 42.8259 18.6987 42.8077C18.7316 42.7583 18.8851 42.5656 19.3848 42.2519L18.3214 40.558C17.6934 40.9522 17.2831 41.3251 17.0341 41.6991C16.7497 42.1261 16.7255 42.4804 16.7255 42.6749H18.7255ZM19.5512 42.121C19.4897 42.1809 19.4311 42.218 19.5088 42.1627C19.549 42.1341 19.5971 42.1006 19.673 42.0469C19.8166 41.9455 20.0178 41.8018 20.2587 41.6202C20.7394 41.2578 21.3804 40.7427 22.0517 40.0995C23.373 38.8338 24.9096 36.9798 25.4719 34.7327L23.5317 34.2472C23.1051 35.952 21.8885 37.4862 20.6682 38.6553C20.0688 39.2296 19.4919 39.6936 19.0546 40.0232C18.8365 40.1877 18.6537 40.3183 18.5192 40.4133C18.456 40.4579 18.3915 40.5031 18.3494 40.533C18.3448 40.5363 18.2342 40.6117 18.155 40.689L19.5512 42.121ZM25.5018 34.4899V34.3476H23.5018V34.4899H25.5018ZM25.473 34.5859C25.5104 34.4332 25.542 34.2851 25.5618 34.1974C25.5864 34.0887 25.5954 34.0624 25.595 34.0637C25.5928 34.0693 25.5806 34.1013 25.5531 34.1458C25.5244 34.1923 25.4755 34.2578 25.3989 34.3218C25.3195 34.388 25.2289 34.4369 25.1353 34.4668C25.0456 34.4954 24.9711 34.501 24.9251 34.501V32.501C24.677 32.501 24.3794 32.5678 24.1179 32.7858C23.8837 32.9812 23.7754 33.2199 23.7225 33.3608C23.6691 33.5031 23.6344 33.653 23.6111 33.7561C23.583 33.8802 23.5625 33.9793 23.5306 34.1094L25.473 34.5859ZM24.9251 34.501C24.882 34.501 24.9186 34.4852 25.1265 34.5763C25.3417 34.6705 25.6798 34.8517 26.2248 35.1943L27.2892 33.501C26.1995 32.816 25.5388 32.501 24.9251 32.501V34.501ZM26.0514 35.0562C27.412 36.4111 29.2426 37.0382 31.4157 37.0408L31.4181 35.0408C29.6404 35.0387 28.3644 34.537 27.4626 33.639L26.0514 35.0562ZM31.4377 37.0406C32.8975 37.0102 34.3488 36.8097 35.7621 36.4432L35.2601 34.5073C33.9972 34.8348 32.7004 35.0139 31.396 35.0411L31.4377 37.0406ZM35.7385 36.449C36.2918 36.3198 36.8543 36.2337 37.421 36.1915L37.2723 34.197C36.6026 34.2469 35.9377 34.3487 35.2837 34.5014L35.7385 36.449ZM37.3466 36.1942H37.6276V34.1942H37.3466V36.1942ZM37.3264 36.1478C37.3821 36.1654 37.4337 36.1938 37.4784 36.2313L38.7651 34.7001C38.5192 34.4935 38.235 34.3374 37.9288 34.2407L37.3264 36.1478ZM37.4784 36.2313C37.523 36.2688 37.5599 36.3148 37.5868 36.3666L39.3617 35.4447C39.2136 35.1598 39.0109 34.9067 38.7651 34.7001L37.4784 36.2313ZM37.5255 36.2219C37.4845 36.0988 37.5114 36.0366 37.4978 36.1022C37.4857 36.1609 37.4516 36.271 37.3719 36.4452C37.212 36.7946 36.9305 37.2704 36.5146 37.8943L38.1787 39.0037C38.6093 38.3577 38.9627 37.7753 39.1906 37.2772C39.3048 37.0276 39.4027 36.7667 39.4564 36.5069C39.5087 36.2541 39.5351 35.926 39.4229 35.5894L37.5255 36.2219ZM36.5576 37.8346C36.1751 38.3258 34.6764 39.6928 32.3854 40.9408C30.1192 42.1753 27.1791 43.2365 23.9362 43.2365V45.2365C27.6084 45.2365 30.879 44.0389 33.3421 42.6971C35.7803 41.3689 37.5292 39.8421 38.1356 39.0634L36.5576 37.8346ZM23.9425 43.2365C22.3208 43.2263 20.7116 42.9527 19.1777 42.4262L18.5285 44.3179C20.2673 44.9147 22.0916 45.2249 23.9299 45.2365L23.9425 43.2365ZM17.8531 43.3721V43.3863H19.8531V43.3721H17.8531Z" fill="#C1C1C1" mask="url(#path-2-inside-1)"/>
</g>
<path d="M65.4893 19.3311H63.5684L59.4531 14.2656V19.3311H57.8193V9.33691H59.4531V14.1768L63.5 9.33691H65.291L61.2578 14.1631L65.4893 19.3311ZM73.4326 12.3584C73.4326 13.402 73.0908 14.2018 72.4072 14.7578C71.7236 15.3138 70.7507 15.5918 69.4883 15.5918H68.4492V19.3311H66.8154V9.33691H69.6934C70.9421 9.33691 71.8763 9.59212 72.4961 10.1025C73.1204 10.613 73.4326 11.3649 73.4326 12.3584ZM68.4492 14.2178H69.3174C70.1559 14.2178 70.7712 14.0719 71.1631 13.7803C71.555 13.4886 71.751 13.0329 71.751 12.4131C71.751 11.8389 71.5755 11.4105 71.2246 11.1279C70.8737 10.8454 70.3268 10.7041 69.584 10.7041H68.4492V14.2178ZM81.6289 19.3311L80.6309 16.5557H76.8096L75.832 19.3311H74.1094L77.8486 9.2959H79.626L83.3652 19.3311H81.6289ZM80.2002 15.1475L79.2637 12.4268C79.1953 12.2445 79.0996 11.9574 78.9766 11.5654C78.8581 11.1735 78.776 10.8864 78.7305 10.7041C78.6074 11.2646 78.4274 11.8776 78.1904 12.543L77.2881 15.1475H80.2002ZM88.9365 10.5947C87.9977 10.5947 87.2594 10.9274 86.7217 11.5928C86.1839 12.2581 85.915 13.1764 85.915 14.3477C85.915 15.5736 86.1725 16.501 86.6875 17.1299C87.207 17.7588 87.9567 18.0732 88.9365 18.0732C89.3604 18.0732 89.7705 18.0322 90.167 17.9502C90.5635 17.8636 90.9759 17.7542 91.4043 17.6221V19.0234C90.6204 19.3197 89.7318 19.4678 88.7383 19.4678C87.2754 19.4678 86.152 19.0257 85.3682 18.1416C84.5843 17.2529 84.1924 15.9837 84.1924 14.334C84.1924 13.2949 84.3815 12.3857 84.7598 11.6064C85.1426 10.8271 85.694 10.2301 86.4141 9.81543C87.1341 9.40072 87.9795 9.19336 88.9502 9.19336C89.971 9.19336 90.9144 9.40755 91.7803 9.83594L91.1924 11.1963C90.8551 11.0368 90.4974 10.8978 90.1191 10.7793C89.7454 10.6562 89.3512 10.5947 88.9365 10.5947ZM101.439 19.3311H99.7988V14.8262H95.1914V19.3311H93.5576V9.33691H95.1914V13.4248H99.7988V9.33691H101.439V19.3311ZM112.944 14.3203C112.944 15.9473 112.536 17.2119 111.721 18.1143C110.91 19.0166 109.759 19.4678 108.269 19.4678C106.76 19.4678 105.6 19.0212 104.789 18.1279C103.982 17.2301 103.579 15.9564 103.579 14.3066C103.579 12.6569 103.985 11.39 104.796 10.5059C105.612 9.62174 106.774 9.17969 108.282 9.17969C109.768 9.17969 110.916 9.62858 111.728 10.5264C112.539 11.4242 112.944 12.6888 112.944 14.3203ZM105.315 14.3203C105.315 15.5508 105.564 16.485 106.061 17.123C106.557 17.7565 107.293 18.0732 108.269 18.0732C109.239 18.0732 109.971 17.7588 110.463 17.1299C110.96 16.501 111.208 15.5645 111.208 14.3203C111.208 13.0944 110.962 12.1647 110.47 11.5312C109.982 10.8978 109.253 10.5811 108.282 10.5811C107.302 10.5811 106.562 10.8978 106.061 11.5312C105.564 12.1647 105.315 13.0944 105.315 14.3203ZM118.249 15.3252L115.774 19.3311H113.908L116.725 14.9492C115.449 14.5072 114.811 13.5775 114.811 12.1602C114.811 11.2441 115.127 10.5446 115.761 10.0615C116.394 9.57845 117.326 9.33691 118.557 9.33691H121.558V19.3311H119.917V15.3252H118.249ZM119.917 10.7041H118.618C117.93 10.7041 117.401 10.8271 117.032 11.0732C116.668 11.3148 116.485 11.7113 116.485 12.2627C116.485 12.8005 116.663 13.2197 117.019 13.5205C117.374 13.8213 117.925 13.9717 118.673 13.9717H119.917V10.7041ZM130.813 12.3584C130.813 13.402 130.472 14.2018 129.788 14.7578C129.104 15.3138 128.132 15.5918 126.869 15.5918H125.83V19.3311H124.196V9.33691H127.074C128.323 9.33691 129.257 9.59212 129.877 10.1025C130.501 10.613 130.813 11.3649 130.813 12.3584ZM125.83 14.2178H126.698C127.537 14.2178 128.152 14.0719 128.544 13.7803C128.936 13.4886 129.132 13.0329 129.132 12.4131C129.132 11.8389 128.956 11.4105 128.605 11.1279C128.255 10.8454 127.708 10.7041 126.965 10.7041H125.83V14.2178ZM137.062 10.5947C136.123 10.5947 135.384 10.9274 134.847 11.5928C134.309 12.2581 134.04 13.1764 134.04 14.3477C134.04 15.5736 134.298 16.501 134.812 17.1299C135.332 17.7588 136.082 18.0732 137.062 18.0732C137.485 18.0732 137.896 18.0322 138.292 17.9502C138.688 17.8636 139.101 17.7542 139.529 17.6221V19.0234C138.745 19.3197 137.857 19.4678 136.863 19.4678C135.4 19.4678 134.277 19.0257 133.493 18.1416C132.709 17.2529 132.317 15.9837 132.317 14.334C132.317 13.2949 132.507 12.3857 132.885 11.6064C133.268 10.8271 133.819 10.2301 134.539 9.81543C135.259 9.40072 136.104 9.19336 137.075 9.19336C138.096 9.19336 139.039 9.40755 139.905 9.83594L139.317 11.1963C138.98 11.0368 138.622 10.8978 138.244 10.7793C137.87 10.6562 137.476 10.5947 137.062 10.5947ZM149.353 19.3311H147.432L143.316 14.2656V19.3311H141.683V9.33691H143.316V14.1768L147.363 9.33691H149.154L145.121 14.1631L149.353 19.3311ZM150.679 9.33691H152.176V14.5322C152.176 15.0745 152.162 15.6237 152.135 16.1797C152.107 16.7311 152.087 17.1048 152.073 17.3008H152.135L157.241 9.33691H159.148V19.3311H157.645V14.1768C157.645 13.3883 157.688 12.4313 157.774 11.3057H157.72L152.593 19.3311H150.679V9.33691ZM161.767 9.33691H163.264V14.5322C163.264 15.0745 163.25 15.6237 163.223 16.1797C163.195 16.7311 163.175 17.1048 163.161 17.3008H163.223L168.329 9.33691H170.236V19.3311H168.732V14.1768C168.732 13.3883 168.776 12.4313 168.862 11.3057H168.808L163.681 19.3311H161.767V9.33691ZM166.053 8.53711C165.087 8.53711 164.378 8.36393 163.927 8.01758C163.48 7.66667 163.232 7.08333 163.182 6.26758H164.638C164.665 6.5957 164.727 6.85091 164.822 7.0332C164.923 7.21549 165.064 7.34766 165.246 7.42969C165.433 7.50716 165.715 7.5459 166.094 7.5459C166.54 7.5459 166.88 7.44792 167.112 7.25195C167.345 7.05143 167.486 6.72331 167.536 6.26758H169.02C168.951 7.05143 168.675 7.62565 168.192 7.99023C167.709 8.35482 166.996 8.53711 166.053 8.53711ZM65.1816 39.3311H63.3018L60.7998 35.2432L58.2773 39.3311H56.5273L59.8428 34.1494L56.7393 29.3369H58.5576L60.8682 33.1172L63.1787 29.3369H64.9424L61.8184 34.1768L65.1816 39.3311ZM72.7285 39.3311L71.7305 36.5557H67.9092L66.9316 39.3311H65.209L68.9482 29.2959H70.7256L74.4648 39.3311H72.7285ZM71.2998 35.1475L70.3633 32.4268C70.2949 32.2445 70.1992 31.9574 70.0762 31.5654C69.9577 31.1735 69.8757 30.8864 69.8301 30.7041C69.707 31.2646 69.527 31.8776 69.29 32.543L68.3877 35.1475H71.2998ZM75.7842 29.3369H77.2812V34.5322C77.2812 35.0745 77.2676 35.6237 77.2402 36.1797C77.2129 36.7311 77.1924 37.1048 77.1787 37.3008H77.2402L82.3467 29.3369H84.2539V39.3311H82.75V34.1768C82.75 33.3883 82.7933 32.4313 82.8799 31.3057H82.8252L77.6982 39.3311H75.7842V29.3369ZM80.0703 28.5371C79.1042 28.5371 78.3955 28.3639 77.9443 28.0176C77.4977 27.6667 77.2493 27.0833 77.1992 26.2676H78.6553C78.6826 26.5957 78.7441 26.8509 78.8398 27.0332C78.9401 27.2155 79.0814 27.3477 79.2637 27.4297C79.4505 27.5072 79.7331 27.5459 80.1113 27.5459C80.5579 27.5459 80.8975 27.4479 81.1299 27.252C81.3623 27.0514 81.5036 26.7233 81.5537 26.2676H83.0371C82.9688 27.0514 82.693 27.6257 82.21 27.9902C81.7269 28.3548 81.0137 28.5371 80.0703 28.5371ZM94.542 39.3311H92.6211L88.5059 34.2656V39.3311H86.8721V29.3369H88.5059V34.1768L92.5527 29.3369H94.3438L90.3105 34.1631L94.542 39.3311ZM95.8682 29.3369H97.3652V34.5322C97.3652 35.0745 97.3516 35.6237 97.3242 36.1797C97.2969 36.7311 97.2764 37.1048 97.2627 37.3008H97.3242L102.431 29.3369H104.338V39.3311H102.834V34.1768C102.834 33.3883 102.877 32.4313 102.964 31.3057H102.909L97.7822 39.3311H95.8682V29.3369ZM114.838 39.3311H113.197V34.8262H108.59V39.3311H106.956V29.3369H108.59V33.4248H113.197V29.3369H114.838V39.3311ZM123.403 29.3369V30.7383H119.104V39.3311H117.47V29.3369H123.403Z" fill="#C1C1C1"/>
<defs>
<clipPath id="clip0">
<rect width="48" height="48" fill="white" transform="translate(0.5 0.331055)"/>
</clipPath>
</defs>
</svg>
