<svg viewBox="0 0 33 32" fill="none" xmlns="http://www.w3.org/2000/svg">
  <path
    d="M7.167 9.334H8.5a2.667 2.667 0 0 0 2.667-2.667A1.333 1.333 0 0 1 12.5 5.334h8a1.333 1.333 0 0 1 1.333 1.333A2.667 2.667 0 0 0 24.5 9.334h1.333A2.667 2.667 0 0 1 28.5 12v12a2.667 2.667 0 0 1-2.667 2.667H7.167A2.667 2.667 0 0 1 4.5 24V12a2.667 2.667 0 0 1 2.667-2.666z"
  />
  <path
    d="M16.5 21.334a4 4 0 1 0 0-8 4 4 0 0 0 0 8z"
    stroke="#1D252A"
    stroke-linecap="round"
    stroke-linejoin="round"
  />
</svg>