<svg width="25" height="25" viewBox="0 0 25 25" fill="none" xmlns="http://www.w3.org/2000/svg">
<path d="M9.5 12.0308C8.70888 12.0308 7.93552 12.2654 7.27772 12.7049C6.61992 13.1444 6.10723 13.7691 5.80448 14.5C5.50173 15.2309 5.42252 16.0352 5.57686 16.8111C5.7312 17.587 6.11216 18.2998 6.67157 18.8592C7.23098 19.4186 7.94372 19.7996 8.71964 19.9539C9.49556 20.1082 10.2998 20.029 11.0307 19.7263C11.7616 19.4235 12.3864 18.9108 12.8259 18.253C13.2654 17.5952 13.5 16.8219 13.5 16.0308V4.03076C13.5 5.35684 14.0268 6.62861 14.9645 7.5663C15.9021 8.50398 17.1739 9.03076 18.5 9.03076" stroke="#C1C1C1" stroke-linecap="round" stroke-linejoin="round"/>
</svg>
