<?xml version="1.0" encoding="UTF-8"?>
<!DOCTYPE svg PUBLIC "-//W3C//DTD SVG 1.1//EN" "http://www.w3.org/Graphics/SVG/1.1/DTD/svg11.dtd">
<!-- Creator: CorelDRAW 2020 (64-Bit) -->
<svg xmlns="http://www.w3.org/2000/svg" xml:space="preserve" width="6.3506mm" height="6.3506mm" version="1.1" style="shape-rendering:geometricPrecision; text-rendering:geometricPrecision; image-rendering:optimizeQuality; fill-rule:evenodd; clip-rule:evenodd"
viewBox="0 0 14.69 14.69"
 xmlns:xlink="http://www.w3.org/1999/xlink"
 xmlns:xodm="http://www.corel.com/coreldraw/odm/2003">
 <defs>
  <style type="text/css">
   <![CDATA[
    .fil0 {fill:red}
   ]]>
  </style>
 </defs>
 <g id="Слой_x0020_1">
  <metadata id="CorelCorpID_0Corel-Layer"/>
  <path class="fil0" d="M7.35 0c-1.45,0 -2.87,0.43 -4.08,1.24 -1.21,0.81 -2.15,1.95 -2.71,3.3 -0.56,1.34 -0.7,2.82 -0.42,4.24 0.28,1.42 0.98,2.73 2.01,3.76 1.03,1.03 2.34,1.73 3.76,2.01 1.42,0.28 2.9,0.14 4.24,-0.42 1.34,-0.56 2.49,-1.5 3.3,-2.71 0.81,-1.21 1.24,-2.63 1.24,-4.08 0,-0.96 -0.19,-1.92 -0.56,-2.81 -0.37,-0.89 -0.91,-1.7 -1.59,-2.38 -0.68,-0.68 -1.49,-1.22 -2.38,-1.59 -0.89,-0.37 -1.85,-0.56 -2.81,-0.56zm-6.91 7.34c-0,-1.54 0.52,-3.04 1.47,-4.25 0.1,0.01 0.2,0.02 0.3,0.02 0.53,-0.01 1.04,-0.18 1.47,-0.47 0.4,-0.22 0.79,-0.47 1.17,-0.73 0.27,-0.2 0.56,-0.37 0.86,-0.52 0.11,-0.07 0.23,-0.12 0.35,-0.17 0.39,-0.17 0.56,-0.26 1.25,-0.26l1.47 0c0.27,-0.02 0.54,-0.07 0.8,-0.15 0.92,0.32 1.77,0.83 2.48,1.5 0.71,0.67 1.28,1.48 1.66,2.38 -0.57,-0.08 -1.86,-0.33 -2.4,-0.96 -0.05,-0.12 -0.11,-0.24 -0.17,-0.35 -0.26,-0.47 -0.61,-1.21 -1.86,-1.34 -0.91,-0.13 -1.3,0.09 -1.77,0.35 -0.56,0.33 -1.18,0.56 -1.82,0.69 -0.44,0.13 -0.78,0.44 -1.12,0.78 -0.44,0.44 -0.86,0.86 -1.51,0.73 -0.26,-0.04 -0.52,-0.03 -0.78,0.03 -0.25,0.07 -0.49,0.19 -0.69,0.35 -0.23,0.18 -0.43,0.41 -0.57,0.67 -0.14,0.26 -0.23,0.55 -0.25,0.84 -0.03,0.32 -0.15,0.63 -0.35,0.89l0 -0.02 0 -0zm2.64 -2.46c0.73,0.13 1.21,-0.3 1.68,-0.78 0.35,-0.35 0.65,-0.65 1.04,-0.73 0.65,-0.16 1.27,-0.41 1.86,-0.73 0.52,-0.3 0.82,-0.44 1.64,-0.35 1.17,0.13 1.47,0.78 1.69,1.21 0.09,0.17 0.13,0.3 0.22,0.39 0.61,0.72 2.09,0.96 2.62,1.02 0.21,0.55 0.35,1.13 0.41,1.72 -0.61,-0.38 -1.77,-1.09 -2.25,-1.19 -0.22,-0.04 -0.39,-0.04 -0.56,-0.09 -0.3,-0.04 -0.48,-0.04 -0.78,-0.17 -0.22,-0.09 -0.3,-0.35 -0.39,-0.65 -0.05,-0.19 -0.13,-0.38 -0.22,-0.56 -0.3,-0.52 -0.86,-0.69 -1.69,-0.52 -0.65,0.13 -2.98,0.95 -3.59,2.07 -0.22,0.44 -0.47,0.44 -0.95,0.44 -0.32,-0.01 -0.64,0.02 -0.95,0.09 -0.86,0.17 -1.04,0.91 -1.21,1.56 -0.04,0.17 -0.09,0.34 -0.13,0.47 -0.15,0.46 -0.65,0.62 -0.94,0.67 -0.07,-0.36 -0.12,-0.72 -0.14,-1.09 0.32,-0.27 0.53,-0.64 0.6,-1.05 0.02,-0.27 0.09,-0.53 0.22,-0.77 0.13,-0.24 0.3,-0.45 0.51,-0.61 0.18,-0.15 0.39,-0.25 0.61,-0.31 0.22,-0.06 0.46,-0.07 0.69,-0.03l0 0.01zm0.73 1.25c0.48,0 0.86,0.04 1.17,-0.52 0.52,-0.99 2.64,-1.81 3.41,-1.99 0.69,-0.17 1.21,-0.04 1.43,0.39 0.08,0.17 0.13,0.34 0.17,0.52 0.09,0.3 0.17,0.65 0.52,0.78 0.26,0.11 0.54,0.19 0.82,0.22 0.19,0.01 0.38,0.04 0.56,0.09 0.51,0.1 1.83,0.93 2.36,1.27 0.01,0.15 0.02,0.3 0.02,0.45 0,0.36 -0.03,0.72 -0.08,1.07 -0.26,-0.09 -1.31,-0.58 -2.21,-1.03 -0.17,-0.13 -0.35,-0.09 -0.44,0.04l-0.13 -0.13c-0.3,-0.35 -0.44,-0.48 -0.56,-0.48 -0.08,0 -0.15,0.03 -0.21,0.08 -0.06,0.05 -0.11,0.11 -0.13,0.18 -0.08,0.01 -0.15,0.06 -0.2,0.12 -0.05,0.06 -0.07,0.14 -0.06,0.22l0 0.35c-0.07,-0.04 -0.14,-0.07 -0.22,-0.09 -0.13,-0.04 -0.17,-0.09 -0.22,-0.09 -0.04,0 -0.17,-0.09 -0.17,-0.3l0 -0.61c-0.02,-0.15 -0.06,-0.3 -0.13,-0.44 -0.09,-0.13 -0.26,-0.44 -0.52,-0.44 -0.08,0 -0.16,0.03 -0.22,0.09l0 -0.22c0,-0.04 0.04,-0.22 0.04,-0.26 0.04,-0.13 -0.13,-0.39 -0.22,-0.52 0,-0.04 -0.04,-0.13 -0.17,-0.17 -0.09,-0.04 -0.17,-0.04 -0.34,0.04 -0.3,0.13 -0.65,0.3 -0.78,0.52 -0.1,0.05 -0.2,0.09 -0.3,0.13 -0.14,0.04 -0.27,0.1 -0.39,0.17l-1.04 0.82c-0.56,0.39 -0.65,0.95 -0.69,1.25 -0.01,0.07 -0.02,0.15 -0.04,0.22 -0.08,0.14 -0.19,0.27 -0.3,0.39 -0.09,0.13 -0.22,0.26 -0.26,0.35 -0.04,0.09 -0.09,0.22 -0.13,0.3 -0.02,0.02 -0.04,0.05 -0.04,0.09 -0.13,-0.04 -0.17,-0.26 -0.26,-0.65 -0.04,-0.3 -0.09,-0.65 -0.39,-0.69 -0.04,0 -0.22,-0.04 -0.56,0.3 -0.21,0.21 -0.36,0.47 -0.45,0.76 -0.09,0.28 -0.11,0.59 -0.07,0.88 -0.15,0.15 -0.66,0.5 -1.19,0.84 -0.25,-0.48 -0.44,-0.99 -0.56,-1.52 0.33,-0.06 0.9,-0.25 1.15,-0.84 0.04,-0.13 0.09,-0.3 0.13,-0.48 0.17,-0.6 0.35,-1.25 1.04,-1.42 0.28,-0.07 0.57,-0.1 0.86,-0.09l0.01 0.01zm1.99 0.65l1.04 -0.82c0.1,-0.05 0.2,-0.09 0.3,-0.13 0.22,-0.04 0.44,-0.13 0.52,-0.3 0.04,-0.13 0.44,-0.3 0.56,-0.35 0.03,0.09 0.08,0.18 0.13,0.26 0,0.09 -0.04,0.22 -0.04,0.26 -0.04,0.52 0.13,0.73 0.26,0.82 0.05,0.04 0.11,0.06 0.17,0.07 0.06,0.01 0.12,-0 0.18,-0.03l0.13 -0.13c0,0.03 0.02,0.06 0.04,0.09 0.04,0.08 0.06,0.17 0.09,0.26l0 0.56c-0.01,0.16 0.04,0.32 0.13,0.46 0.09,0.13 0.23,0.23 0.38,0.28 0.05,-0 0.09,0.02 0.13,0.04 0.39,0.17 0.52,0.22 0.65,0.13 0.13,-0.09 0.17,-0.26 0.17,-0.73 0.04,0 0.09,-0.01 0.13,-0.03 0.04,-0.02 0.07,-0.06 0.09,-0.1l0 -0.04 0.26 0.26c0.35,0.35 0.47,0.47 0.65,0.39 0.04,-0.04 0.09,-0.13 0.13,-0.17 0.58,0.31 1.76,0.9 2.21,1.02 -0.06,0.27 -0.14,0.54 -0.23,0.8 -0.91,-0.44 -2.33,-1.13 -2.46,-1.21 -0.17,-0.17 -0.35,0 -0.44,0.13 -0.04,0.04 -0.09,0.13 -0.17,0.17 -0.17,0.09 -0.44,0.26 -1.38,-0.09 -0.82,-0.3 -1.12,-1.04 -1.34,-1.86 -0.03,-0.07 -0.07,-0.13 -0.14,-0.17 -0.06,-0.04 -0.14,-0.06 -0.21,-0.05 -0.56,0 -1.9,0.86 -2.38,2.89 -0.13,0.52 -0.65,0.82 -1.04,0.78 -0.44,-0.04 -0.69,0.3 -0.91,0.61 -0.03,0.08 -0.08,0.15 -0.13,0.22 -0.19,0.22 -0.79,0.65 -1.11,0.86 -0.29,-0.33 -0.56,-0.69 -0.78,-1.07 1.42,-0.92 1.42,-1 1.37,-1.05l0 -0.18c-0.05,-0.23 -0.04,-0.47 0.03,-0.7 0.07,-0.23 0.19,-0.43 0.35,-0.6l0.17 -0.17c0,0.09 0.04,0.22 0.04,0.3 0.04,0.35 0.17,0.99 0.78,0.99 0.22,0 0.3,-0.22 0.35,-0.39 0,-0.08 0.03,-0.16 0.09,-0.22 0.06,-0.1 0.13,-0.18 0.22,-0.26 0.16,-0.15 0.29,-0.33 0.39,-0.52 0.05,-0.09 0.08,-0.2 0.09,-0.3 0.04,-0.3 0.13,-0.69 0.52,-0.99l-0 0.01zm-0.31 2.8c0.48,-1.94 1.69,-2.77 2.2,-2.77 0.04,0 0.13,-0 0.13,0.04 0.26,0.82 0.56,1.69 1.47,2.03 0.91,0.35 1.3,0.22 1.56,0.04 0.13,-0.04 0.17,-0.13 0.26,-0.22 0.13,-0.17 0.13,-0.13 0.17,-0.13 0.16,0.12 2.03,1.02 2.5,1.26 -0.41,1.04 -1.06,1.96 -1.9,2.7 0.14,-0.38 0.44,-0.92 1.08,-1.53 0.07,-0.06 0.11,-0.14 0.12,-0.22 0.02,-0.09 0,-0.18 -0.04,-0.25 -0.22,-0.47 -1.17,-1.04 -1.69,-1.04 -0.3,0.01 -0.59,0.07 -0.86,0.17 -0.26,0.09 -0.56,0.22 -0.86,0.17 -0.56,-0.09 -0.99,-0.17 -1.51,-1.25 -0.26,-0.52 -0.48,-0.78 -0.69,-0.78 -0.22,0 -0.35,0.17 -0.44,0.3 -0.13,0.17 -0.44,0.91 -0.52,1.34 -0.09,0.48 -0.22,0.78 -0.52,1.25 -0.35,0.52 -0.84,0.93 -1.43,1.17 -0.88,0.35 -1.14,0.77 -1.21,1.08 -0.36,-0.26 -0.7,-0.55 -1,-0.88 0.32,-0.23 0.91,-0.65 1.01,-0.85 0.07,-0.06 0.13,-0.14 0.17,-0.22 0.17,-0.26 0.39,-0.56 0.69,-0.52 0.52,0.09 1.12,-0.26 1.3,-0.91l0.01 0zm-1.86 -7.13c-0.46,0.28 -1,0.42 -1.53,0.4 0.85,-1 1.97,-1.73 3.22,-2.12 1.25,-0.39 2.59,-0.41 3.86,-0.06 -0.12,0.03 -0.23,0.05 -0.35,0.06l-1.47 0c-0.73,0 -0.95,0.09 -1.34,0.3 -0.11,0.07 -0.23,0.12 -0.35,0.17 -0.3,0.15 -0.59,0.32 -0.86,0.52 -0.36,0.28 -0.75,0.53 -1.17,0.73l0 -0.01zm3.16 7.09c0.09,-0.44 0.35,-1.12 0.47,-1.3 0.04,-0.04 0.13,-0.17 0.22,-0.17 0.09,0 0.26,0.09 0.52,0.65 0.47,1.04 0.95,1.3 1.69,1.34 0.35,0.04 0.65,-0.09 0.95,-0.17 0.25,-0.1 0.51,-0.16 0.78,-0.17 0.44,0 1.3,0.48 1.47,0.91 0.02,0.04 0.03,0.08 0.02,0.12 -0.01,0.04 -0.03,0.08 -0.06,0.1 -0.89,0.86 -1.17,1.58 -1.26,1.96 -1.13,0.88 -2.5,1.38 -3.92,1.45 -1.43,0.06 -2.84,-0.32 -4.04,-1.09 0,-0.2 0.12,-0.67 1.09,-1.06 0.62,-0.25 1.15,-0.69 1.51,-1.25 0.35,-0.47 0.44,-0.82 0.56,-1.3l0 -0.01z"/>
  <path class="fil0" d="M5.82 13.06c-0.22,-0.04 -0.34,-0.13 -0.34,-0.22 0,-0.04 0,-0.17 0.34,-0.39 0.04,-0.04 1.43,-0.91 1.73,-2.12l0 -0.04c0.04,-0.17 0.04,-0.26 0.13,-0.26 0.09,0 0.22,0.04 0.56,0.26 0.35,0.34 0.82,0.52 1.43,0.52 0.42,-0.01 0.84,-0.07 1.25,-0.17 0.18,-0.04 0.37,-0.07 0.56,-0.09l0.09 0c0.06,0.02 0.11,0.05 0.15,0.08 0.04,0.04 0.08,0.08 0.11,0.13 0.04,0.13 -0.09,0.39 -0.35,0.78 -0.3,0.39 -1.99,1.77 -4.1,1.77 -0.53,-0 -1.06,-0.09 -1.56,-0.26l0 0zm-0.17 -0.78c-0.3,0.22 -0.47,0.44 -0.44,0.6 0.04,0.17 0.17,0.35 0.47,0.44 0.53,0.17 1.08,0.26 1.64,0.26 2.2,0 3.93,-1.43 4.28,-1.9 0.3,-0.44 0.44,-0.78 0.35,-0.99 -0.09,-0.17 -0.22,-0.26 -0.44,-0.35 -0.17,-0.04 -0.44,0 -0.78,0.09 -0.39,0.11 -0.8,0.16 -1.21,0.17 -0.56,0 -0.95,-0.13 -1.3,-0.44 -0.26,-0.22 -0.44,-0.35 -0.6,-0.35 -0.26,0 -0.3,0.3 -0.35,0.44l0 0.04c-0.29,1.12 -1.63,1.98 -1.63,1.98z"/>
 </g>
</svg>
