<svg width="24" height="24" viewBox="0 0 24 24" fill="none" xmlns="http://www.w3.org/2000/svg">
<path d="M12 6C12 7.10457 12.8954 8 14 8C15.1046 8 16 7.10457 16 6C16 4.89543 15.1046 4 14 4C12.8954 4 12 4.89543 12 6Z" stroke="white" stroke-linecap="round" stroke-linejoin="round"/>
<path d="M20 6L16 6" stroke="white" stroke-linecap="round" stroke-linejoin="round"/>
<path d="M12 6L4 6" stroke="white" stroke-linecap="round" stroke-linejoin="round"/>
<path d="M6 12C6 13.1046 6.89543 14 8 14C9.10457 14 10 13.1046 10 12C10 10.8954 9.10457 10 8 10C6.89543 10 6 10.8954 6 12Z" stroke="white" stroke-linecap="round" stroke-linejoin="round"/>
<path d="M20 12L10 12" stroke="white" stroke-linecap="round" stroke-linejoin="round"/>
<path d="M6 12L4 12" stroke="white" stroke-linecap="round" stroke-linejoin="round"/>
<path d="M15 18C15 19.1046 15.8954 20 17 20C18.1046 20 19 19.1046 19 18C19 16.8954 18.1046 16 17 16C15.8954 16 15 16.8954 15 18Z" stroke="white" stroke-linecap="round" stroke-linejoin="round"/>
<path d="M20 18L19 18" stroke="white" stroke-linecap="round" stroke-linejoin="round"/>
<path d="M15 18L4 18" stroke="white" stroke-linecap="round" stroke-linejoin="round"/>
</svg>
