<svg width="80" height="81" viewBox="0 0 80 81" fill="none" xmlns="http://www.w3.org/2000/svg">
<path d="M20.0002 70.5306C23.6821 70.5306 26.6668 67.5458 26.6668 63.8639C26.6668 60.182 23.6821 57.1973 20.0002 57.1973C16.3183 57.1973 13.3335 60.182 13.3335 63.8639C13.3335 67.5458 16.3183 70.5306 20.0002 70.5306Z" stroke="white" stroke-linecap="round" stroke-linejoin="round"/>
<path d="M60.0002 23.8641C63.6821 23.8641 66.6668 20.8793 66.6668 17.1974C66.6668 13.5155 63.6821 10.5308 60.0002 10.5308C56.3183 10.5308 53.3335 13.5155 53.3335 17.1974C53.3335 20.8793 56.3183 23.8641 60.0002 23.8641Z" stroke="white" stroke-linecap="round" stroke-linejoin="round"/>
<path d="M39.9998 63.8639H54.9998C58.094 63.8639 61.0615 62.6348 63.2494 60.4469C65.4373 58.2589 66.6665 55.2915 66.6665 52.1973C66.6665 49.1031 65.4373 46.1356 63.2494 43.9477C61.0615 41.7598 58.094 40.5306 54.9998 40.5306H28.3332C25.239 40.5306 22.2715 39.3014 20.0836 37.1135C17.8957 34.9256 16.6665 31.9581 16.6665 28.8639C16.6665 25.7697 17.8957 22.8023 20.0836 20.6144C22.2715 18.4264 25.239 17.1973 28.3332 17.1973H39.9998" stroke="white" stroke-linecap="round" stroke-linejoin="round"/>
</svg>
